<?xml version="1.0" standalone="no"?><!DOCTYPE svg PUBLIC "-//W3C//DTD SVG 1.1//EN" "http://www.w3.org/Graphics/SVG/1.1/DTD/svg11.dtd"><svg t="1685369972076" class="icon" viewBox="0 0 1024 1024" version="1.1" xmlns="http://www.w3.org/2000/svg" p-id="1668" xmlns:xlink="http://www.w3.org/1999/xlink" width="200" height="200"><path d="M230.78464 320v296.533333V320z" fill="#EA445C" p-id="1669"></path><path d="M230.78464 320h2.133333v296.533333h-2.133333z" fill="#EA445C" p-id="1670"></path><path d="M232.917973 320h2.133334v296.533333h-2.133334z" fill="#EA445C" p-id="1671"></path><path d="M235.051307 320h2.133333v296.533333H235.051307z" fill="#EA445C" p-id="1672"></path><path d="M237.18464 320h2.133333v296.533333h-2.133333z" fill="#EA445C" p-id="1673"></path><path d="M239.317973 320h2.133334v296.533333h-2.133334z" fill="#EA445C" p-id="1674"></path><path d="M241.451307 320h2.133333v296.533333h-2.133333z" fill="#EA445C" p-id="1675"></path><path d="M243.58464 320h2.133333v296.533333h-2.133333z" fill="#EA445C" p-id="1676"></path><path d="M245.717973 320h2.133334v296.533333h-2.133334z" fill="#EA445C" p-id="1677"></path><path d="M249.98464 320h2.133333v296.533333h-2.133333z" fill="#EA445C" p-id="1678"></path><path d="M252.117973 320h2.133334v296.533333h-2.133334z" fill="#EA445C" p-id="1679"></path><path d="M254.251307 320h2.133333v296.533333h-2.133333z" fill="#EA445C" p-id="1680"></path><path d="M256.38464 320h2.133333v296.533333H256.38464z" fill="#EA445C" p-id="1681"></path><path d="M258.517973 320h2.133334v296.533333h-2.133334z" fill="#EA445C" p-id="1682"></path><path d="M260.651307 320h2.133333v296.533333h-2.133333z" fill="#EA445C" p-id="1683"></path><path d="M262.78464 320h2.133333v296.533333h-2.133333z" fill="#EA445C" p-id="1684"></path><path d="M264.917973 320h2.133334v296.533333h-2.133334z" fill="#EA445C" p-id="1685"></path><path d="M269.18464 320h2.133333v296.533333h-2.133333z" fill="#EA445C" p-id="1686"></path><path d="M271.317973 320h2.133334v296.533333h-2.133334z" fill="#EA445C" p-id="1687"></path><path d="M273.451307 320h2.133333v296.533333h-2.133333z" fill="#EA445C" p-id="1688"></path><path d="M275.58464 320h2.133333v296.533333h-2.133333z" fill="#EA445C" p-id="1689"></path><path d="M277.717973 320h2.133334v296.533333H277.717973z" fill="#EA445C" p-id="1690"></path><path d="M279.851307 320h2.133333v296.533333h-2.133333z" fill="#EA445C" p-id="1691"></path><path d="M281.98464 320h2.133333v296.533333h-2.133333z" fill="#EA445C" p-id="1692"></path><path d="M284.117973 320h2.133334v296.533333h-2.133334z" fill="#EA445C" p-id="1693"></path><path d="M288.38464 320h2.133333v296.533333h-2.133333z" fill="#EA445C" p-id="1694"></path><path d="M290.517973 320h2.133334v296.533333h-2.133334z" fill="#EA445C" p-id="1695"></path><path d="M292.651307 320h2.133333v296.533333h-2.133333z" fill="#EA445C" p-id="1696"></path><path d="M294.78464 320h2.133333v296.533333h-2.133333z" fill="#EA445C" p-id="1697"></path><path d="M296.917973 320h2.133334v296.533333h-2.133334z" fill="#EA445C" p-id="1698"></path><path d="M299.051307 320h2.133333v296.533333H299.051307z" fill="#EA445C" p-id="1699"></path><path d="M301.18464 320h2.133333v296.533333h-2.133333z" fill="#EA445C" p-id="1700"></path><path d="M305.451307 320h2.133333v296.533333h-2.133333z" fill="#EA445C" p-id="1701"></path><path d="M307.58464 320h2.133333v296.533333h-2.133333z" fill="#EA445C" p-id="1702"></path><path d="M309.717973 320h2.133334v296.533333h-2.133334z" fill="#EA445C" p-id="1703"></path><path d="M311.851307 320h2.133333v296.533333h-2.133333z" fill="#EA445C" p-id="1704"></path><path d="M313.98464 320h2.133333v296.533333h-2.133333z" fill="#EA445C" p-id="1705"></path><path d="M316.117973 320h2.133334v296.533333h-2.133334z" fill="#EA445C" p-id="1706"></path><path d="M318.251307 320h2.133333v296.533333h-2.133333z" fill="#EA445C" p-id="1707"></path><path d="M320.38464 320h2.133333v296.533333H320.38464z" fill="#EA445C" p-id="1708"></path><path d="M324.651307 320h2.133333v296.533333h-2.133333z" fill="#EA445C" p-id="1709"></path><path d="M326.78464 320h2.133333v296.533333h-2.133333z" fill="#EA445C" p-id="1710"></path><path d="M328.917973 320h2.133334v296.533333h-2.133334z" fill="#EA445C" p-id="1711"></path><path d="M331.051307 320h2.133333v296.533333h-2.133333z" fill="#EA445C" p-id="1712"></path><path d="M333.18464 320h2.133333v296.533333h-2.133333z" fill="#EA445C" p-id="1713"></path><path d="M335.317973 320h2.133334v296.533333h-2.133334z" fill="#EA445C" p-id="1714"></path><path d="M337.451307 320h2.133333v296.533333h-2.133333z" fill="#EA445C" p-id="1715"></path><path d="M339.58464 320h2.133333v296.533333h-2.133333z" fill="#EA445C" p-id="1716"></path><path d="M343.851307 320h2.133333v296.533333h-2.133333z" fill="#EA445C" p-id="1717"></path><path d="M345.98464 320h2.133333v296.533333h-2.133333z" fill="#EA445C" p-id="1718"></path><path d="M348.117973 320h2.133334v296.533333h-2.133334z" fill="#EA445C" p-id="1719"></path><path d="M350.251307 320h2.133333v296.533333h-2.133333z" fill="#EA445C" p-id="1720"></path><path d="M352.38464 320h2.133333v296.533333h-2.133333z" fill="#EA445C" p-id="1721"></path><path d="M354.517973 320h2.133334v296.533333h-2.133334z" fill="#EA445C" p-id="1722"></path><path d="M356.651307 320h2.133333v296.533333h-2.133333z" fill="#EA445C" p-id="1723"></path><path d="M358.78464 320h2.133333v296.533333h-2.133333z" fill="#EA445C" p-id="1724"></path><path d="M363.051307 320h2.133333v296.533333H363.051307z" fill="#EA445C" p-id="1725"></path><path d="M365.18464 320h2.133333v296.533333h-2.133333z" fill="#EA445C" p-id="1726"></path><path d="M367.317973 320h2.133334v296.533333h-2.133334z" fill="#EA445C" p-id="1727"></path><path d="M369.451307 320h2.133333v296.533333h-2.133333z" fill="#EA445C" p-id="1728"></path><path d="M371.58464 320h2.133333v296.533333h-2.133333z" fill="#EA445C" p-id="1729"></path><path d="M373.717973 320h2.133334v296.533333h-2.133334z" fill="#EA445C" p-id="1730"></path><path d="M375.851307 320h2.133333v296.533333h-2.133333z" fill="#EA445C" p-id="1731"></path><path d="M377.98464 320h2.133333v296.533333h-2.133333z" fill="#EA445C" p-id="1732"></path><path d="M382.251307 320h2.133333v296.533333h-2.133333z" fill="#EA445C" p-id="1733"></path><path d="M384.38464 320h2.133333v296.533333H384.38464z" fill="#EA445C" p-id="1734"></path><path d="M386.517973 320h2.133334v296.533333h-2.133334z" fill="#EA445C" p-id="1735"></path><path d="M388.651307 320h2.133333v296.533333h-2.133333z" fill="#EA445C" p-id="1736"></path><path d="M390.78464 320h2.133333v296.533333h-2.133333z" fill="#EA445C" p-id="1737"></path><path d="M392.917973 320h2.133334v296.533333h-2.133334z" fill="#EA445C" p-id="1738"></path><path d="M395.051307 320h2.133333v296.533333h-2.133333z" fill="#EA445C" p-id="1739"></path><path d="M399.317973 320h2.133334v296.533333h-2.133334z" fill="#EA445C" p-id="1740"></path><path d="M401.451307 320h2.133333v296.533333h-2.133333z" fill="#EA445C" p-id="1741"></path><path d="M403.58464 320h2.133333v296.533333h-2.133333z" fill="#EA445C" p-id="1742"></path><path d="M405.717973 320h2.133334v296.533333H405.717973z" fill="#EA445C" p-id="1743"></path><path d="M407.851307 320h2.133333v296.533333h-2.133333z" fill="#EA445C" p-id="1744"></path><path d="M409.98464 320h2.133333v296.533333h-2.133333z" fill="#EA445C" p-id="1745"></path><path d="M412.117973 320h2.133334v296.533333h-2.133334z" fill="#EA445C" p-id="1746"></path><path d="M414.251307 320h2.133333v296.533333h-2.133333z" fill="#EA445C" p-id="1747"></path><path d="M418.517973 320h2.133334v296.533333h-2.133334z" fill="#EA445C" p-id="1748"></path><path d="M420.651307 320h2.133333v296.533333h-2.133333z" fill="#EA445C" p-id="1749"></path><path d="M422.78464 320h2.133333v296.533333h-2.133333z" fill="#EA445C" p-id="1750"></path><path d="M424.917973 320h2.133334v296.533333h-2.133334z" fill="#EA445C" p-id="1751"></path><path d="M427.051307 320h2.133333v296.533333H427.051307z" fill="#EA445C" p-id="1752"></path><path d="M429.18464 320h2.133333v296.533333h-2.133333z" fill="#EA445C" p-id="1753"></path><path d="M431.317973 320h2.133334v296.533333h-2.133334z" fill="#EA445C" p-id="1754"></path><path d="M433.451307 320h2.133333v296.533333h-2.133333z" fill="#EA445C" p-id="1755"></path><path d="M437.717973 320h2.133334v296.533333h-2.133334z" fill="#EA445C" p-id="1756"></path><path d="M439.851307 320h2.133333v296.533333h-2.133333z" fill="#EA445C" p-id="1757"></path><path d="M441.98464 320h2.133333v296.533333h-2.133333z" fill="#EA445C" p-id="1758"></path><path d="M444.117973 320h2.133334v296.533333h-2.133334z" fill="#EA445C" p-id="1759"></path><path d="M446.251307 320h2.133333v296.533333h-2.133333z" fill="#EA445C" p-id="1760"></path><path d="M448.38464 320h2.133333v296.533333H448.38464z" fill="#EA445C" p-id="1761"></path><path d="M450.517973 320h2.133334v296.533333h-2.133334z" fill="#EA445C" p-id="1762"></path><path d="M452.651307 320h2.133333v296.533333h-2.133333z" fill="#EA445C" p-id="1763"></path><path d="M456.917973 320h2.133334v296.533333h-2.133334z" fill="#EA445C" p-id="1764"></path><path d="M459.051307 320h2.133333v296.533333h-2.133333z" fill="#EA445C" p-id="1765"></path><path d="M461.18464 320h2.133333v296.533333h-2.133333z" fill="#EA445C" p-id="1766"></path><path d="M463.317973 320h2.133334v296.533333h-2.133334z" fill="#EA445C" p-id="1767"></path><path d="M465.451307 320h2.133333v296.533333h-2.133333z" fill="#EA445C" p-id="1768"></path><path d="M467.58464 320h2.133333v296.533333h-2.133333z" fill="#EA445C" p-id="1769"></path><path d="M469.717973 320h2.133334v296.533333H469.717973z" fill="#EA445C" p-id="1770"></path><path d="M473.98464 320h2.133333v296.533333h-2.133333z" fill="#EA445C" p-id="1771"></path><path d="M476.117973 320h2.133334v296.533333h-2.133334z" fill="#EA445C" p-id="1772"></path><path d="M478.251307 320h2.133333v296.533333h-2.133333z" fill="#EA445C" p-id="1773"></path><path d="M480.38464 320h2.133333v296.533333h-2.133333z" fill="#EA445C" p-id="1774"></path><path d="M482.517973 320h2.133334v296.533333h-2.133334z" fill="#EA445C" p-id="1775"></path><path d="M484.651307 320h2.133333v296.533333h-2.133333z" fill="#EA445C" p-id="1776"></path><path d="M486.78464 320h2.133333v296.533333h-2.133333z" fill="#EA445C" p-id="1777"></path><path d="M488.917973 320h2.133334v296.533333h-2.133334z" fill="#EA445C" p-id="1778"></path><path d="M493.18464 320h2.133333v296.533333h-2.133333z" fill="#EA445C" p-id="1779"></path><path d="M495.317973 320h2.133334v296.533333h-2.133334z" fill="#EA445C" p-id="1780"></path><path d="M497.451307 320h2.133333v296.533333h-2.133333z" fill="#EA445C" p-id="1781"></path><path d="M499.58464 320h2.133333v296.533333h-2.133333z" fill="#EA445C" p-id="1782"></path><path d="M501.717973 320h2.133334v296.533333h-2.133334z" fill="#EA445C" p-id="1783"></path><path d="M503.851307 320h2.133333v296.533333h-2.133333z" fill="#EA445C" p-id="1784"></path><path d="M505.98464 320h2.133333v296.533333h-2.133333z" fill="#EA445C" p-id="1785"></path><path d="M508.117973 320h2.133334v296.533333h-2.133334z" fill="#EA445C" p-id="1786"></path><path d="M512.38464 320h2.133333v296.533333H512.38464z" fill="#EA445C" p-id="1787"></path><path d="M514.517973 320h2.133334v296.533333h-2.133334z" fill="#EA445C" p-id="1788"></path><path d="M516.651307 320h2.133333v296.533333h-2.133333z" fill="#EA445C" p-id="1789"></path><path d="M518.78464 320h2.133333v296.533333h-2.133333z" fill="#EA445C" p-id="1790"></path><path d="M520.917973 320h2.133334v296.533333h-2.133334z" fill="#EA445C" p-id="1791"></path><path d="M523.051307 320h2.133333v296.533333h-2.133333z" fill="#EA445C" p-id="1792"></path><path d="M525.18464 320h2.133333v296.533333h-2.133333z" fill="#EA445C" p-id="1793"></path><path d="M527.317973 320h2.133334v296.533333h-2.133334z" fill="#EA445C" p-id="1794"></path><path d="M531.58464 320h2.133333v296.533333h-2.133333z" fill="#EA445C" p-id="1795"></path><path d="M533.717973 320h2.133334v296.533333H533.717973z" fill="#EA445C" p-id="1796"></path><path d="M535.851307 320h2.133333v296.533333h-2.133333z" fill="#EA445C" p-id="1797"></path><path d="M537.98464 320h2.133333v296.533333h-2.133333z" fill="#EA445C" p-id="1798"></path><path d="M540.117973 320h2.133334v296.533333h-2.133334z" fill="#EA445C" p-id="1799"></path><path d="M542.251307 320h2.133333v296.533333h-2.133333z" fill="#EA445C" p-id="1800"></path><path d="M544.38464 320h2.133333v296.533333h-2.133333z" fill="#EA445C" p-id="1801"></path><path d="M546.517973 320h2.133334v296.533333h-2.133334z" fill="#EA445C" p-id="1802"></path><path d="M550.78464 320h2.133333v296.533333h-2.133333z" fill="#EA445C" p-id="1803"></path><path d="M552.917973 320h2.133334v296.533333h-2.133334z" fill="#EA445C" p-id="1804"></path><path d="M555.051307 320h2.133333v296.533333H555.051307z" fill="#EA445C" p-id="1805"></path><path d="M557.18464 320h2.133333v296.533333h-2.133333z" fill="#EA445C" p-id="1806"></path><path d="M559.317973 320h2.133334v296.533333h-2.133334z" fill="#EA445C" p-id="1807"></path><path d="M561.451307 320h2.133333v296.533333h-2.133333z" fill="#EA445C" p-id="1808"></path><path d="M563.58464 320h2.133333v296.533333h-2.133333z" fill="#EA445C" p-id="1809"></path><path d="M567.851307 320h2.133333v296.533333h-2.133333z" fill="#EA445C" p-id="1810"></path><path d="M569.98464 320h2.133333v296.533333h-2.133333z" fill="#EA445C" p-id="1811"></path><path d="M572.117973 320h2.133334v296.533333h-2.133334z" fill="#EA445C" p-id="1812"></path><path d="M574.251307 320h2.133333v296.533333h-2.133333z" fill="#EA445C" p-id="1813"></path><path d="M576.38464 320h2.133333v296.533333H576.38464z" fill="#EA445C" p-id="1814"></path><path d="M578.517973 320h2.133334v296.533333h-2.133334z" fill="#EA445C" p-id="1815"></path><path d="M580.651307 320h2.133333v296.533333h-2.133333z" fill="#EA445C" p-id="1816"></path><path d="M582.78464 320h2.133333v296.533333h-2.133333z" fill="#EA445C" p-id="1817"></path><path d="M587.051307 320h2.133333v296.533333h-2.133333z" fill="#EA445C" p-id="1818"></path><path d="M589.18464 320h2.133333v296.533333h-2.133333z" fill="#EA445C" p-id="1819"></path><path d="M591.317973 320h2.133334v296.533333h-2.133334z" fill="#EA445C" p-id="1820"></path><path d="M593.451307 320h2.133333v296.533333h-2.133333z" fill="#EA445C" p-id="1821"></path><path d="M595.58464 320h2.133333v296.533333h-2.133333z" fill="#EA445C" p-id="1822"></path><path d="M597.717973 320h2.133334v296.533333H597.717973z" fill="#EA445C" p-id="1823"></path><path d="M599.851307 320h2.133333v296.533333h-2.133333z" fill="#EA445C" p-id="1824"></path><path d="M601.98464 320h2.133333v296.533333h-2.133333z" fill="#EA445C" p-id="1825"></path><path d="M606.251307 320h2.133333v296.533333h-2.133333z" fill="#EA445C" p-id="1826"></path><path d="M608.38464 320h2.133333v296.533333h-2.133333z" fill="#EA445C" p-id="1827"></path><path d="M610.517973 320h2.133334v296.533333h-2.133334z" fill="#EA445C" p-id="1828"></path><path d="M612.651307 320h2.133333v296.533333h-2.133333z" fill="#EA445C" p-id="1829"></path><path d="M614.78464 320h2.133333v296.533333h-2.133333z" fill="#EA445C" p-id="1830"></path><path d="M616.917973 320h2.133334v296.533333h-2.133334z" fill="#EA445C" p-id="1831"></path><path d="M619.051307 320h2.133333v296.533333H619.051307z" fill="#EA445C" p-id="1832"></path><path d="M621.18464 320h2.133333v296.533333h-2.133333z" fill="#EA445C" p-id="1833"></path><path d="M625.451307 320h2.133333v296.533333h-2.133333z" fill="#EA445C" p-id="1834"></path><path d="M627.58464 320h2.133333v296.533333h-2.133333z" fill="#EA445C" p-id="1835"></path><path d="M629.717973 320h2.133334v296.533333h-2.133334z" fill="#EA445C" p-id="1836"></path><path d="M631.851307 320h2.133333v296.533333h-2.133333z" fill="#EA445C" p-id="1837"></path><path d="M633.98464 320h2.133333v296.533333h-2.133333z" fill="#EA445C" p-id="1838"></path><path d="M636.117973 320h2.133334v296.533333h-2.133334z" fill="#EA445C" p-id="1839"></path><path d="M638.251307 320h2.133333v296.533333h-2.133333z" fill="#EA445C" p-id="1840"></path><path d="M640.38464 320h2.133333v296.533333H640.38464z" fill="#EA445C" p-id="1841"></path><path d="M644.651307 320h2.133333v296.533333h-2.133333z" fill="#EA445C" p-id="1842"></path><path d="M646.78464 320h2.133333v296.533333h-2.133333z" fill="#EA445C" p-id="1843"></path><path d="M648.917973 320h2.133334v296.533333h-2.133334z" fill="#EA445C" p-id="1844"></path><path d="M651.051307 320h2.133333v296.533333h-2.133333z" fill="#EA445C" p-id="1845"></path><path d="M653.18464 320h2.133333v296.533333h-2.133333z" fill="#EA445C" p-id="1846"></path><path d="M655.317973 320h2.133334v296.533333h-2.133334z" fill="#EA445C" p-id="1847"></path><path d="M657.451307 320h2.133333v296.533333h-2.133333z" fill="#EA445C" p-id="1848"></path><path d="M661.717973 320h2.133334v296.533333H661.717973z" fill="#EA445C" p-id="1849"></path><path d="M663.851307 320h2.133333v296.533333h-2.133333z" fill="#EA445C" p-id="1850"></path><path d="M665.98464 320h2.133333v296.533333h-2.133333z" fill="#EA445C" p-id="1851"></path><path d="M668.117973 320h2.133334v296.533333h-2.133334z" fill="#EA445C" p-id="1852"></path><path d="M670.251307 320h2.133333v296.533333h-2.133333z" fill="#EA445C" p-id="1853"></path><path d="M672.38464 320h2.133333v296.533333h-2.133333z" fill="#EA445C" p-id="1854"></path><path d="M674.517973 320h2.133334v296.533333h-2.133334z" fill="#EA445C" p-id="1855"></path><path d="M676.651307 320h2.133333v296.533333h-2.133333z" fill="#EA445C" p-id="1856"></path><path d="M680.917973 320h2.133334v296.533333h-2.133334z" fill="#EA445C" p-id="1857"></path><path d="M683.051307 320h2.133333v296.533333H683.051307z" fill="#EA445C" p-id="1858"></path><path d="M685.18464 320h2.133333v296.533333h-2.133333z" fill="#EA445C" p-id="1859"></path><path d="M687.317973 320h2.133334v296.533333h-2.133334z" fill="#EA445C" p-id="1860"></path><path d="M689.451307 320h2.133333v296.533333h-2.133333z" fill="#EA445C" p-id="1861"></path><path d="M691.58464 320h2.133333v296.533333h-2.133333z" fill="#EA445C" p-id="1862"></path><path d="M693.717973 320h2.133334v296.533333h-2.133334z" fill="#EA445C" p-id="1863"></path><path d="M695.851307 320h2.133333v296.533333h-2.133333z" fill="#EA445C" p-id="1864"></path><path d="M700.117973 320h2.133334v296.533333h-2.133334z" fill="#EA445C" p-id="1865"></path><path d="M702.251307 320h2.133333v296.533333h-2.133333z" fill="#EA445C" p-id="1866"></path><path d="M704.38464 320h2.133333v296.533333H704.38464z" fill="#EA445C" p-id="1867"></path><path d="M706.517973 320h2.133334v296.533333h-2.133334z" fill="#EA445C" p-id="1868"></path><path d="M708.651307 320h2.133333v296.533333h-2.133333z" fill="#EA445C" p-id="1869"></path><path d="M710.78464 320h2.133333v296.533333h-2.133333z" fill="#EA445C" p-id="1870"></path><path d="M712.917973 320h2.133334v296.533333h-2.133334z" fill="#EA445C" p-id="1871"></path><path d="M715.051307 320h2.133333v296.533333h-2.133333z" fill="#EA445C" p-id="1872"></path><path d="M719.317973 320h2.133334v296.533333h-2.133334z" fill="#EA445C" p-id="1873"></path><path d="M721.451307 320h2.133333v296.533333h-2.133333z" fill="#EA445C" p-id="1874"></path><path d="M723.58464 320h2.133333v296.533333h-2.133333z" fill="#EA445C" p-id="1875"></path><path d="M725.717973 320h2.133334v296.533333H725.717973z" fill="#EA445C" p-id="1876"></path><path d="M727.851307 320h2.133333v296.533333h-2.133333z" fill="#EA445C" p-id="1877"></path><path d="M729.98464 320h2.133333v296.533333h-2.133333z" fill="#EA445C" p-id="1878"></path><path d="M732.117973 320h2.133334v296.533333h-2.133334z" fill="#EA445C" p-id="1879"></path><path d="M734.251307 320h2.133333v296.533333h-2.133333z" fill="#EA445C" p-id="1880"></path><path d="M738.517973 320h2.133334v296.533333h-2.133334z" fill="#EA445C" p-id="1881"></path><path d="M740.651307 320h2.133333v296.533333h-2.133333z" fill="#EA445C" p-id="1882"></path><path d="M742.78464 320h2.133333v296.533333h-2.133333z" fill="#EA445C" p-id="1883"></path><path d="M744.917973 320h2.133334v296.533333h-2.133334z" fill="#EA445C" p-id="1884"></path><path d="M747.051307 320h2.133333v296.533333H747.051307z" fill="#EA445C" p-id="1885"></path><path d="M749.18464 320h2.133333v296.533333h-2.133333z" fill="#EA445C" p-id="1886"></path><path d="M751.317973 320h2.133334v296.533333h-2.133334z" fill="#EA445C" p-id="1887"></path><path d="M755.58464 320h2.133333v296.533333h-2.133333z" fill="#EA445C" p-id="1888"></path><path d="M757.717973 320h2.133334v296.533333h-2.133334z" fill="#EA445C" p-id="1889"></path><path d="M759.851307 320h2.133333v296.533333h-2.133333z" fill="#EA445C" p-id="1890"></path><path d="M761.98464 320h2.133333v296.533333h-2.133333z" fill="#EA445C" p-id="1891"></path><path d="M764.117973 320h2.133334v296.533333h-2.133334z" fill="#EA445C" p-id="1892"></path><path d="M766.251307 320h2.133333v296.533333h-2.133333z" fill="#EA445C" p-id="1893"></path><path d="M768.38464 320h2.133333v296.533333H768.38464z" fill="#EA445C" p-id="1894"></path><path d="M770.517973 320h2.133334v296.533333h-2.133334z" fill="#EA445C" p-id="1895"></path><path d="M774.78464 320h2.133333v296.533333h-2.133333z" fill="#EA445C" p-id="1896"></path><path d="M776.917973 320h2.133334v296.533333h-2.133334z" fill="#EA445C" p-id="1897"></path><path d="M779.051307 320h2.133333v296.533333h-2.133333z" fill="#EA445C" p-id="1898"></path><path d="M781.18464 320h2.133333v296.533333h-2.133333z" fill="#EA445C" p-id="1899"></path><path d="M783.317973 320h2.133334v296.533333h-2.133334z" fill="#EA445C" p-id="1900"></path><path d="M785.451307 320h2.133333v296.533333h-2.133333z" fill="#EA445C" p-id="1901"></path><path d="M787.58464 320h2.133333v296.533333h-2.133333z" fill="#EA445C" p-id="1902"></path><path d="M789.717973 320h2.133334v296.533333H789.717973z" fill="#EA445C" p-id="1903"></path><path d="M793.98464 616.533333V320v296.533333z" fill="#EA445C" p-id="1904"></path><path d="M488.917973 936.533333L70.78464 499.2C-18.81536 405.333333-25.21536 249.6 62.251307 153.6 153.98464 55.466667 301.18464 53.333333 392.917973 149.333333l117.333334 123.733334 113.066666-117.333334c89.6-93.866667 236.8-102.4 328.533334-8.533333 93.866667 93.866667 93.866667 249.6 2.133333 345.6L533.717973 936.533333c-12.8 12.8-32 12.8-44.8 0z" fill="#EA445C" p-id="1905"></path><path d="M894.251307 317.866667c-12.8 0-21.333333-8.533333-21.333334-21.333334 0-59.733333-49.066667-108.8-108.8-108.8-12.8 0-21.333333-8.533333-21.333333-21.333333s8.533333-21.333333 21.333333-21.333333c83.2 0 151.466667 68.266667 151.466667 151.466666 0 12.8-10.666667 21.333333-21.333333 21.333334z" fill="#FFFFFF" p-id="1906"></path></svg>