<?xml version="1.0" standalone="no"?><!DOCTYPE svg PUBLIC "-//W3C//DTD SVG 1.1//EN" "http://www.w3.org/Graphics/SVG/1.1/DTD/svg11.dtd"><svg t="1685106750578" class="icon" viewBox="0 0 1024 1024" version="1.1" xmlns="http://www.w3.org/2000/svg" p-id="1110" xmlns:xlink="http://www.w3.org/1999/xlink" width="200" height="200"><path d="M902.8096 545.8944l-213.5552-226.304-16.3328-17.3568c-63.6928 176.9472-229.2224 305.2544-425.8816 314.2144v232.3456c0 16.9472 12.8 30.72 28.6208 30.72h139.8784c10.5472 0 19.0976-9.1648 19.0976-20.48v-162.9696c0-11.3152 8.5504-20.48 19.0976-20.48h116.5312c10.5472 0 19.0976 9.1648 19.0976 20.48v162.9696c0 11.3152 8.5504 20.48 19.0976 20.48h139.8784c15.8208 0 28.6208-13.7728 28.6208-30.72v-250.3168h105.6768c25.6512 0 38.3488-33.28 20.1728-52.5824z" fill="#ffe048" p-id="1111"></path><path d="M748.3392 900.0448h-139.8784c-21.8112 0-39.5776-18.3808-39.5776-40.96v-162.9696H455.1168v162.9696c0 22.5792-17.7664 40.96-39.5776 40.96H275.6608c-27.0848 0-49.1008-22.9888-49.1008-51.2V619.008H141.312c-19.6096 0-36.7616-11.5712-44.8-30.1568-8.3968-19.456-4.5568-41.7792 9.7792-56.9856l370.688-392.8064c9.3184-9.8816 21.76-15.3088 35.0208-15.3088s25.7024 5.4272 35.0208 15.3088l84.224 89.1392a20.41856 20.41856 0 0 1-0.8192 28.928 20.41856 20.41856 0 0 1-28.928-0.8192l-84.2752-89.1392c-1.8944-2.048-3.8912-2.4576-5.2224-2.4576s-3.328 0.4096-5.2224 2.4576l-370.688 392.8064c-3.7376 3.9424-3.4304 9.1136-1.9456 12.6464 0.8704 1.9968 2.9696 5.4272 7.168 5.4272h105.6768c11.3152 0 20.48 9.1648 20.48 20.48v250.3168c0 5.5296 3.7376 10.24 8.1408 10.24h138.496v-162.9696c0-22.5792 17.7664-40.96 39.5776-40.96h116.5312c21.8112 0 39.5776 18.3808 39.5776 40.96v162.9696h138.496c4.4032 0 8.1408-4.7104 8.1408-10.24V598.528c0-11.3152 9.1648-20.48 20.48-20.48h105.6768c4.1984 0 6.2976-3.3792 7.168-5.4272 1.536-3.5328 1.792-8.704-1.9456-12.6464l-213.5552-226.304a20.46464 20.46464 0 0 1 29.7472-28.1088l213.5552 226.304c14.2848 15.1552 18.1248 37.5296 9.7792 56.9856-8.0384 18.5856-25.1904 30.1568-44.7488 30.1568h-85.1968v229.8368c0.0512 28.2112-21.9648 51.2-49.0496 51.2z" fill="#55524F" p-id="1112"></path></svg>