<?xml version="1.0" standalone="no"?><!DOCTYPE svg PUBLIC "-//W3C//DTD SVG 1.1//EN" "http://www.w3.org/Graphics/SVG/1.1/DTD/svg11.dtd"><svg t="1684152196761" class="icon" viewBox="0 0 1399 1024" version="1.1" xmlns="http://www.w3.org/2000/svg" p-id="3298" xmlns:xlink="http://www.w3.org/1999/xlink" width="273.2421875" height="200"><path d="M1076.137729 822.200733m-22.880586 0a22.880586 22.880586 0 1 0 45.761172 0 22.880586 22.880586 0 1 0-45.761172 0Z" fill="#E0BF57" p-id="3299"></path><path d="M211.176557 656.035165m-30.382418 0a30.382418 30.382418 0 1 0 60.764835 0 30.382418 30.382418 0 1 0-60.764835 0Z" fill="#72B7DA" p-id="3300"></path><path d="M902.47033 50.262271m-22.880586 0a22.880586 22.880586 0 1 0 45.761172 0 22.880586 22.880586 0 1 0-45.761172 0Z" fill="#E0BF57" p-id="3301"></path><path d="M724.301832 288.820513s-44.260806 39.009524-70.142125 37.134066c0 0 0-31.882784-10.877656-37.134066 0 0-5.626374 40.884982-44.260806 40.884982 0 0 9.377289-21.38022 1.875458-30.007327 0 0-22.130403 40.884982-70.142124 14.25348 0 0 27.756777-28.50696 18.379487-28.506959s-38.634432 22.880586-57.013919 115.153113c0 0-10.877656-22.880586-25.881319-49.512088-14.628571-26.631502-20.254945-74.643223 10.877656-92.272527 0 0-20.254945 3.375824-36.758975-7.12674 0 0 27.756777-12.378022 46.136264-33.758242s90.39707-97.52381 197.298168-74.643223c106.901099 22.880586 136.533333 108.026374 127.156044 170.291575-9.377289 61.89011-31.507692 100.899634-31.507692 100.899633S785.066667 322.578755 724.301832 288.820513z" fill="#0C1531" p-id="3302"></path><path d="M512 314.32674v99.399267c0 76.518681 61.89011 138.408791 138.408791 138.408792s138.408791-61.89011 138.408791-138.408792l-0.375091-25.881318-9.37729 1.125274s-12.378022-54.013187-30.382417-73.142857c-18.004396-19.504762-30.007326-27.006593-30.007326-27.006593s-52.512821 36.008791-61.139927 36.758974c-9.002198 0.750183-18.004396-30.382418-18.004395-30.382417s-12.378022 24.756044-24.756044 28.882051c-12.378022 4.126007-19.504762-1.500366-19.504762-1.500366v-23.255678s-18.004396 24.756044-30.382418 23.255678c-12.753114-1.125275-52.887912-8.252015-52.887912-8.252015zM613.649817 553.635165h74.643223v56.638828h-74.643223zM506.373626 803.446154c10.127473 11.252747 9.377289 28.882051-1.875458 39.009524-11.252747 10.502564-28.882051 9.377289-39.009523-1.875458l-106.526008-116.278388c-10.502564-11.252747-9.377289-28.882051 1.875458-39.009524 11.252747-10.502564 28.882051-9.377289 39.009524 1.875458l106.526007 116.278388zM855.958974 842.455678c-10.502564 10.877656-28.131868 11.252747-39.009523 0.750183-10.877656-10.502564-11.252747-28.131868-0.750184-39.009524l109.151649-113.652747c10.502564-10.877656 28.131868-11.252747 39.009524-0.750183 10.877656 10.502564 11.252747 28.131868 0.750183 39.009523l-109.151649 113.652748z" fill="#FADADA" p-id="3303"></path><path d="M570.889377 614.4H405.098901c0 107.651282 104.275458 195.047619 232.931868 195.047619s232.931868-87.396337 232.931868-195.047619h-300.07326zM528.879121 653.034432c-21.38022 0-38.634432-17.254212-38.634432-38.634432h77.268864c0 21.38022-17.254212 38.634432-38.634432 38.634432z" fill="#D0413D" p-id="3304"></path><path d="M402.848352 621.151648s8.252015 235.182418 265.564835 235.182418c221.304029-8.252015 229.556044-226.930403 229.556044-226.930403s-94.898168 176.29304-240.808791 176.29304c-234.057143-0.375092-254.312088-184.545055-254.312088-184.545055z" fill="#63B46E" p-id="3305"></path><path d="M638.405861 559.63663c-80.269597 0-145.910623-65.265934-145.910623-145.910623V364.213919c0-4.126007 3.375824-7.501832 7.501832-7.501831s7.501832 3.375824 7.501831 7.501831v49.88718c0 72.017582 58.514286 130.90696 130.90696 130.90696s130.90696-58.514286 130.90696-130.90696V364.213919c0-4.126007 3.375824-7.501832 7.501831-7.501831s7.501832 3.375824 7.501832 7.501831v49.88718c-0.375092 80.269597-65.641026 145.535531-145.910623 145.535531z" fill="#040000" p-id="3306"></path><path d="M778.315018 422.353114c-0.750183 0-1.500366 0-2.250549-0.375092-3.375824-1.125275-5.626374-4.126007-5.251282-7.501832 0-0.750183 4.126007-83.27033-46.886447-116.278388-12.378022 10.502564-47.261538 37.134066-71.267399 35.6337-3.750916-0.375092-7.12674-3.375824-7.12674-7.501832 0-6.376557-0.750183-12.753114-1.875458-18.379487-7.12674 14.628571-21.38022 29.257143-46.136264 29.257143-2.625641 0-4.87619-1.125275-6.376557-3.375824-1.500366-2.250549-1.500366-4.87619-0.750183-7.12674 1.125275-2.625641 2.250549-6.001465 3.000733-9.002198-7.501832 6.376557-18.754579 12.378022-33.38315 12.378022-10.877656 0-22.505495-3.375824-34.508425-10.127472-0.375092 0-0.750183-0.375092-0.750183-0.750184-9.002198 16.504029-18.754579 42.76044-26.631502 82.520147-0.750183 3.000733-3.375824 5.626374-6.376557 6.001465-3.375824 0.375092-6.376557-1.125275-7.876923-4.126007 0-0.375092-11.252747-23.255678-25.506227-49.136997-13.503297-24.756044-19.12967-64.140659-1.500367-88.521611-6.751648-1.125275-14.628571-3.375824-21.755311-7.876923-2.250549-1.500366-3.750916-4.126007-3.375824-6.751649 0.375092-2.625641 1.875458-5.251282 4.501099-6.376556 0.375092 0 26.25641-12.00293 43.510623-31.882784 21.38022-24.380952 79.519414-81.394872 163.539926-81.394872 13.503297 0 27.381685 1.500366 41.260074 4.501099 106.150916 22.880586 143.660073 108.776557 133.157509 178.54359-9.377289 62.640293-31.132601 102.024908-32.257876 103.525274-1.875458 2.625641-4.501099 4.126007-7.12674 4.126008zM723.176557 281.318681c1.125275 0 2.625641 0.375092 3.750916 1.125275 40.884982 22.505495 53.638095 68.641758 57.764102 100.149451 6.376557-16.879121 13.503297-40.884982 18.004396-69.767033 7.12674-48.761905-10.127473-137.658608-121.529671-161.664469-12.753114-2.625641-25.506227-4.126007-37.884249-4.126008-77.643956 0-132.032234 53.263004-151.912088 76.14359-10.877656 12.378022-24.005861 21.755311-34.133333 27.756777 9.377289 1.875458 18.004396 0.750183 18.004396 0.750183 3.750916-0.750183 7.12674 1.500366 8.252014 4.87619 1.125275 3.375824-0.375092 7.12674-3.375824 9.002198-26.25641 15.003663-21.38022 57.764103-8.252015 82.145055 6.376557 11.627839 12.00293 22.505495 16.50403 31.132601 19.12967-78.769231 46.886447-100.524542 60.014652-100.524542 4.126007 0 7.12674 1.875458 8.627106 5.626373 1.500366 3.000733 3.375824 8.252015-14.628571 28.131868 6.376557 2.625641 12.378022 3.750916 18.379487 3.750916 21.755311 0 32.257875-18.379487 32.632967-19.12967 1.125275-2.250549 3.375824-3.750916 6.001465-3.750916 2.625641-0.375092 4.87619 0.750183 6.376557 2.625641 6.001465 7.12674 5.251282 17.629304 3.375824 25.881319 22.130403-6.376557 25.881319-31.507692 25.881319-33.008059 0.375092-2.250549 1.875458-4.501099 3.750915-5.626373 2.250549-1.125275 4.501099-1.125275 6.751649 0 11.252747 5.251282 14.25348 24.005861 15.003663 36.008791 19.504762-3.750916 47.63663-25.881319 57.764102-34.883517 1.125275-1.875458 3.000733-2.625641 4.876191-2.625641zM599.396337 612.149451c-4.126007 0-7.501832-3.375824-7.501832-7.501832v-46.136264c0-4.126007 3.375824-7.501832 7.501832-7.501831s7.501832 3.375824 7.501831 7.501831v46.136264c0 4.126007-3.000733 7.501832-7.501831 7.501832zM677.040293 612.149451c-4.126007 0-7.501832-3.375824-7.501831-7.501832v-46.136264c0-4.126007 3.375824-7.501832 7.501831-7.501831s7.501832 3.375824 7.501832 7.501831v46.136264c0 4.126007-3.375824 7.501832-7.501832 7.501832zM999.619048 867.586813c0 9.002198-7.501832 16.504029-16.50403 16.504029H269.315751c-9.002198 0-16.504029-7.501832-16.504029-16.504029 0-9.002198 7.501832-16.504029 16.504029-16.504029H982.739927c9.377289 0 16.879121 7.12674 16.879121 16.504029z" fill="#040000" p-id="3307"></path><path d="M470.364835 857.084249c-9.752381 0-19.12967-4.126007-25.881319-11.252747l-106.526007-116.278388a34.470916 34.470916 0 0 1-9.377289-25.131136c0.375092-9.377289 4.501099-18.004396 11.252747-24.380952 6.376557-6.001465 15.003663-9.377289 23.630769-9.37729 9.752381 0 19.12967 4.126007 25.881319 11.252748l106.526007 116.278388c13.128205 14.25348 12.00293 36.758974-2.250549 49.512088-6.001465 6.001465-14.628571 9.377289-23.255678 9.377289zM363.838828 685.292308c-4.87619 0-9.752381 1.875458-13.503297 5.251282-4.126007 3.750916-6.376557 8.627106-6.376557 13.878388-0.375092 5.251282 1.500366 10.502564 5.251282 14.628571l106.526008 116.278389c3.750916 4.126007 9.377289 6.376557 15.003663 6.376557 4.87619 0 9.752381-1.875458 13.503296-5.251283 8.252015-7.501832 8.627106-20.254945 1.125275-28.506959l-106.526007-116.278389c-4.126007-3.750916-9.377289-6.376557-15.003663-6.376556zM816.199267 858.584615c-9.002198 0-17.629304-3.375824-24.380952-9.752381-13.878388-13.503297-14.628571-35.6337-1.125275-49.887179l109.151649-113.652747c6.751648-7.12674 15.753846-10.877656 25.506227-10.877656 9.002198 0 17.629304 3.375824 24.380952 9.752381 13.878388 13.503297 14.628571 35.6337 1.125275 49.887179L841.330403 847.70696c-6.376557 7.12674-15.378755 10.877656-25.131136 10.877655z m109.151649-169.1663c-5.626374 0-10.877656 2.250549-14.628572 6.376557l-109.151648 113.652747c-7.876923 7.876923-7.501832 20.630037 0.750183 28.50696 3.750916 3.750916 8.627106 5.626374 13.878388 5.626373 5.626374 0 10.877656-2.250549 14.628572-6.376556l109.151648-113.652748c7.876923-7.876923 7.501832-20.630037-0.750183-28.506959-3.750916-3.750916-8.627106-5.626374-13.878388-5.626374z" fill="#040000" p-id="3308"></path><path d="M639.531136 866.461538c-142.90989 0-259.188278-116.278388-259.188279-259.188278 0-4.126007 3.375824-7.501832 7.501832-7.501831s7.501832 3.375824 7.501831 7.501831c0 134.657875 109.52674 244.184615 244.184616 244.184615s244.184615-109.52674 244.184615-244.184615c0-4.126007 3.375824-7.501832 7.501831-7.501831s7.501832 3.375824 7.501832 7.501831c0 142.534799-116.278388 259.188278-259.188278 259.188278z" fill="#040000" p-id="3309"></path><path d="M639.531136 810.197802c-132.782418 0-240.4337-90.772161-240.4337-202.54945 0-4.126007 3.375824-7.501832 7.501831-7.501832H487.619048c4.126007 0 7.501832 3.375824 7.501831 7.501832s-3.375824 7.501832-7.501831 7.501831h-73.142858c4.87619 99.774359 103.900366 180.043956 225.430037 180.043956 121.154579 0 220.553846-80.269597 225.430037-180.043956h-292.571429c-4.126007 0-7.501832-3.375824-7.501831-7.501831s3.375824-7.501832 7.501831-7.501832h300.448352c4.126007 0 7.501832 3.375824 7.501831 7.501832-0.750183 111.402198-108.401465 202.549451-241.183882 202.54945z" fill="#040000" p-id="3310"></path><path d="M470.739927 657.910623a12.753114 6.751648 90 1 0 13.503296 0 12.753114 6.751648 90 1 0-13.503296 0Z" fill="#040000" p-id="3311"></path><path d="M585.89304 657.910623a12.753114 6.751648 90 1 0 13.503297 0 12.753114 6.751648 90 1 0-13.503297 0Z" fill="#040000" p-id="3312"></path><path d="M643.657143 657.910623a12.753114 6.751648 90 1 0 13.503297 0 12.753114 6.751648 90 1 0-13.503297 0Z" fill="#040000" p-id="3313"></path><path d="M701.046154 657.910623a12.753114 6.751648 90 1 0 13.503297 0 12.753114 6.751648 90 1 0-13.503297 0Z" fill="#040000" p-id="3314"></path><path d="M758.810256 657.910623a12.753114 6.751648 90 1 0 13.503297 0 12.753114 6.751648 90 1 0-13.503297 0Z" fill="#040000" p-id="3315"></path><path d="M816.199267 657.910623a12.753114 6.751648 90 1 0 13.503297 0 12.753114 6.751648 90 1 0-13.503297 0Z" fill="#040000" p-id="3316"></path><path d="M504.498168 702.171429a12.753114 6.751648 90 1 0 13.503297 0 12.753114 6.751648 90 1 0-13.503297 0Z" fill="#040000" p-id="3317"></path><path d="M561.887179 702.171429a12.753114 6.751648 90 1 0 13.503297 0 12.753114 6.751648 90 1 0-13.503297 0Z" fill="#040000" p-id="3318"></path><path d="M619.651282 702.171429a12.753114 6.751648 90 1 0 13.503297 0 12.753114 6.751648 90 1 0-13.503297 0Z" fill="#040000" p-id="3319"></path><path d="M677.040293 702.171429a12.753114 6.751648 90 1 0 13.503297 0 12.753114 6.751648 90 1 0-13.503297 0Z" fill="#040000" p-id="3320"></path><path d="M734.804396 702.171429a12.753114 6.751648 90 1 0 13.503296 0 12.753114 6.751648 90 1 0-13.503296 0Z" fill="#040000" p-id="3321"></path><path d="M792.193407 702.171429a12.753114 6.751648 90 1 0 13.503296 0 12.753114 6.751648 90 1 0-13.503296 0Z" fill="#040000" p-id="3322"></path><path d="M530.379487 653.784615c-25.506227 0-46.136264-20.630037-46.136264-46.136263 0-4.126007 3.375824-7.501832 7.501832-7.501832s7.501832 3.375824 7.501831 7.501832c0 17.254212 13.878388 31.132601 31.132601 31.1326 17.254212 0 31.132601-13.878388 31.132601-31.1326 0-4.126007 3.375824-7.501832 7.501831-7.501832s7.501832 3.375824 7.501832 7.501832c0 25.506227-20.630037 46.136264-46.136264 46.136263z" fill="#040000" p-id="3323"></path><path d="M1165.409524 552.884982h-298.572894c-4.126007 0-7.501832-3.375824-7.501831-7.501832s3.375824-7.501832 7.501831-7.501831h298.572894c4.126007 0 7.501832 3.375824 7.501831 7.501831s-3.375824 7.501832-7.501831 7.501832zM259.56337 502.997802H39.759707c-4.126007 0-7.501832-3.375824-7.501832-7.501831s3.375824-7.501832 7.501832-7.501832h219.803663c4.126007 0 7.501832 3.375824 7.501831 7.501832s-3.375824 7.501832-7.501831 7.501831zM408.849817 436.606593H360.463004c-4.126007 0-7.501832-3.375824-7.501832-7.501831s3.375824-7.501832 7.501832-7.501832H408.849817c4.126007 0 7.501832 3.375824 7.501831 7.501832s-3.375824 7.501832-7.501831 7.501831zM310.575824 436.606593H226.18022c-4.126007 0-7.501832-3.375824-7.501832-7.501831s3.375824-7.501832 7.501832-7.501832h84.395604c4.126007 0 7.501832 3.375824 7.501832 7.501832s-3.375824 7.501832-7.501832 7.501831zM404.348718 502.997802H289.570696c-4.126007 0-7.501832-3.375824-7.501832-7.501831s3.375824-7.501832 7.501832-7.501832h115.153114c4.126007 0 7.501832 3.375824 7.501831 7.501832s-3.750916 7.501832-7.876923 7.501831zM1204.419048 552.884982h-13.878389c-4.126007 0-7.501832-3.375824-7.501831-7.501832s3.375824-7.501832 7.501831-7.501831h13.878389c4.126007 0 7.501832 3.375824 7.501831 7.501831s-3.375824 7.501832-7.501831 7.501832zM1246.054212 552.884982h-13.878388c-4.126007 0-7.501832-3.375824-7.501831-7.501832s3.375824-7.501832 7.501831-7.501831h13.878388c4.126007 0 7.501832 3.375824 7.501832 7.501831s-3.375824 7.501832-7.501832 7.501832z" fill="#50B676" p-id="3324"></path><path d="M457.23663 929.101832H158.663736c-4.126007 0-7.501832-3.375824-7.501831-7.501832s3.375824-7.501832 7.501831-7.501832h298.572894c4.126007 0 7.501832 3.375824 7.501832 7.501832s-3.375824 7.501832-7.501832 7.501832zM496.246154 929.101832h-13.878388c-4.126007 0-7.501832-3.375824-7.501832-7.501832s3.375824-7.501832 7.501832-7.501832h13.878388c4.126007 0 7.501832 3.375824 7.501831 7.501832s-3.375824 7.501832-7.501831 7.501832zM537.881319 929.101832h-13.878389c-4.126007 0-7.501832-3.375824-7.501831-7.501832s3.375824-7.501832 7.501831-7.501832h13.878389c4.126007 0 7.501832 3.375824 7.501831 7.501832s-3.375824 7.501832-7.501831 7.501832z" fill="#040000" p-id="3325"></path><path d="M1291.440293 502.997802H1087.765568c-4.126007 0-7.501832-3.375824-7.501832-7.501831s3.375824-7.501832 7.501832-7.501832h204.049817c4.126007 0 7.501832 3.375824 7.501831 7.501832s-3.750916 7.501832-7.876923 7.501831zM1325.948718 502.997802H1316.571429c-4.126007 0-7.501832-3.375824-7.501832-7.501831s3.375824-7.501832 7.501832-7.501832h9.377289c4.126007 0 7.501832 3.375824 7.501831 7.501832s-3.375824 7.501832-7.501831 7.501831zM1366.083516 502.997802h-9.377289c-4.126007 0-7.501832-3.375824-7.501831-7.501831s3.375824-7.501832 7.501831-7.501832h9.377289c4.126007 0 7.501832 3.375824 7.501832 7.501832s-3.375824 7.501832-7.501832 7.501831z" fill="#50B676" p-id="3326"></path><path d="M980.114286 243.059341H930.227106c-4.126007 0-7.501832-3.375824-7.501831-7.501832s3.375824-7.501832 7.501831-7.501831h49.88718c4.126007 0 7.501832 3.375824 7.501831 7.501831s-3.375824 7.501832-7.501831 7.501832z" fill="#3E423F" p-id="3327"></path><path d="M955.358242 268.190476c-4.126007 0-7.501832-3.375824-7.501832-7.501831V210.801465c0-4.126007 3.375824-7.501832 7.501832-7.501831s7.501832 3.375824 7.501831 7.501831v49.88718c0 4.126007-3.375824 7.501832-7.501831 7.501831z" fill="#3E423F" p-id="3328"></path><path d="M374.341392 77.268864H324.454212c-4.126007 0-7.501832-3.375824-7.501831-7.501831s3.375824-7.501832 7.501831-7.501832h49.88718c4.126007 0 7.501832 3.375824 7.501831 7.501832s-3.375824 7.501832-7.501831 7.501831z" fill="#040000" p-id="3329"></path><path d="M349.585348 102.024908c-4.126007 0-7.501832-3.375824-7.501832-7.501831V44.635897c0-4.126007 3.375824-7.501832 7.501832-7.501831s7.501832 3.375824 7.501831 7.501831v49.88718c0 4.126007-3.375824 7.501832-7.501831 7.501831zM191.671795 693.919414c-21.005128 0-37.884249-16.879121-37.884249-37.884249s16.879121-37.884249 37.884249-37.884249 37.884249 16.879121 37.884249 37.884249S212.676923 693.919414 191.671795 693.919414z m0-60.764835c-12.753114 0-22.880586 10.127473-22.880586 22.880586s10.127473 22.880586 22.880586 22.880586 22.880586-10.127473 22.880586-22.880586-10.127473-22.880586-22.880586-22.880586zM1060.383883 852.208059c-16.879121 0-30.382418-13.503297-30.382418-30.382418s13.503297-30.382418 30.382418-30.382418 30.382418 13.503297 30.382417 30.382418-13.503297 30.382418-30.382417 30.382418z m0-45.386081c-8.627106 0-15.378755 6.751648-15.378755 15.378755s6.751648 15.378755 15.378755 15.378754 15.378755-6.751648 15.378754-15.378754-6.751648-15.378755-15.378754-15.378755zM886.341392 80.644689c-16.879121 0-30.382418-13.503297-30.382418-30.382418s13.503297-30.382418 30.382418-30.382418 30.382418 13.503297 30.382418 30.382418c-0.375092 16.879121-13.878388 30.382418-30.382418 30.382418z m0-45.761173c-8.627106 0-15.378755 6.751648-15.378755 15.378755s6.751648 15.378755 15.378755 15.378755 15.378755-6.751648 15.378755-15.378755c-0.375092-8.252015-7.12674-15.378755-15.378755-15.378755zM593.01978 432.480586c-6.376557 0-11.252747-4.87619-11.252747-11.252747v-33.38315c0-6.376557 4.87619-11.252747 11.252747-11.252748s11.252747 4.87619 11.252747 11.252748v33.38315c0 6.001465-4.87619 11.252747-11.252747 11.252747z" fill="#040000" p-id="3330"></path><path d="M675.915018 432.480586c-6.376557 0-11.252747-4.87619-11.252747-11.252747v-33.38315c0-6.376557 4.87619-11.252747 11.252747-11.252748s11.252747 4.87619 11.252748 11.252748v33.38315c0 6.001465-4.87619 11.252747-11.252748 11.252747z" fill="#040000" p-id="3331"></path></svg>