<?xml version="1.0" standalone="no"?><!DOCTYPE svg PUBLIC "-//W3C//DTD SVG 1.1//EN" "http://www.w3.org/Graphics/SVG/1.1/DTD/svg11.dtd"><svg t="1685369967104" class="icon" viewBox="0 0 1024 1024" version="1.1" xmlns="http://www.w3.org/2000/svg" p-id="1517" xmlns:xlink="http://www.w3.org/1999/xlink" width="200" height="200"><path d="M709.632 24.12c-78.791 0.058-154.169 34.191-208.668 94.436-54.5-60.245-129.878-94.321-208.726-94.378C131.072 24.12 0 165.376 0 338.888c0 72.988 23.723 144.099 69.006 203.15l373.078 410.111a78.052 78.052 0 0 0 117.703 0l375.296-413.127a330.297 330.297 0 0 0 66.673-200.135c0-173.568-131.072-314.766-292.18-314.766z" fill="#555555" p-id="1518"></path><path d="M872.96 479.687L501.988 889.97 131.3 482.418a237.056 237.056 0 0 1-47.787-143.53c0-124.303 93.639-225.508 208.668-225.508 70.315 0.17 135.794 38.115 173.853 100.693l34.873 56.49 34.816-56.49c38.115-62.578 103.537-100.466 173.852-100.693 115.086 0 208.725 101.205 208.725 225.507 0 52.338-16.952 103.31-45.51 140.743h0.17z" fill="#FFFFFF" p-id="1519"></path></svg>