<?xml version="1.0" standalone="no"?><!DOCTYPE svg PUBLIC "-//W3C//DTD SVG 1.1//EN" "http://www.w3.org/Graphics/SVG/1.1/DTD/svg11.dtd"><svg class="icon" width="200px" height="200.00px" viewBox="0 0 1024 1024" version="1.1" xmlns="http://www.w3.org/2000/svg"><path d="M918.976 626.56c0-102.912-88.064-186.368-196.608-186.368-108.544 0-196.608 83.456-196.608 186.368v186.368h198.656c107.52-1.024 194.56-83.968 194.56-186.368z" fill="#EAEAEA" /><path d="M795.072 617.344c0-59.392-26.624-112.64-69.12-148.48 0.512-5.632 1.024-11.264 1.024-16.896a196.096 196.096 0 0 0-196.608-195.584c-108.544 0-197.12 88.064-197.12 196.096 0 2.048 0 3.584 0.512 5.632a186.88 186.88 0 1 0-87.552 354.816v0.512h360.448v-0.512a196.16 196.16 0 0 0 188.416-195.584z" fill="#F7F7F7" /></svg>