<?xml version="1.0" standalone="no"?><!DOCTYPE svg PUBLIC "-//W3C//DTD SVG 1.1//EN" "http://www.w3.org/Graphics/SVG/1.1/DTD/svg11.dtd"><svg class="icon" width="200px" height="188.24px" viewBox="0 0 1088 1024" version="1.1" xmlns="http://www.w3.org/2000/svg"><path d="M975.488 353.792c0-97.792-83.968-177.664-187.392-177.664-103.424 0-187.392 79.36-187.392 177.664v177.664h189.44c102.912-1.536 185.344-80.384 185.344-177.664z" fill="#EAEAEA" /><path d="M857.728 345.088c0-56.32-25.6-107.008-65.536-141.312a165.12 165.12 0 0 0 1.024-15.872c0-102.912-83.968-185.856-187.392-185.856-103.424 0-187.392 83.456-187.392 185.856 0 2.048 0 3.584 0.512 5.12a178.304 178.304 0 0 0-256 160.256c0 96.256 76.8 174.592 172.032 177.664v0.512h343.04v-0.512c99.84-4.096 179.712-85.504 179.712-185.856z" fill="#F7F7F7" /><path d="M480.384 889.856a5.12 5.12 0 0 1-5.12-5.12V750.08c0-2.56 2.048-5.12 5.12-5.12s5.12 2.048 5.12 5.12v134.656c-0.512 3.072-2.56 5.12-5.12 5.12z" fill="#D8D8D8" /><path d="M480.384 784.896a5.504 5.504 0 0 1-3.584-1.536l-19.456-19.456c-2.048-2.048-2.048-5.12 0-6.656 2.048-2.048 5.12-2.048 6.656 0l15.872 15.872 15.872-15.872c2.048-2.048 5.12-2.048 6.656 0 2.048 2.048 2.048 5.12 0 6.656l-19.456 19.456c0 1.024-1.536 1.536-2.56 1.536z m19.456 94.72a5.504 5.504 0 0 1-3.584-1.536l-15.872-15.872-15.872 15.872c-2.048 2.048-5.12 2.048-6.656 0-2.048-2.048-2.048-5.12 0-6.656l19.456-19.456c2.048-2.048 5.12-2.048 6.656 0l19.456 19.456c2.048 2.048 2.048 5.12 0 6.656a5.504 5.504 0 0 1-3.584 1.536zM538.752 856.064c-1.024 0-1.536 0-2.56-0.512L419.456 788.48c-2.56-1.536-3.072-4.096-1.536-6.656 1.536-2.56 4.096-3.072 6.656-1.536l116.736 67.072c2.56 1.536 3.072 4.096 1.536 6.656a4.672 4.672 0 0 1-4.096 2.048z" fill="#D8D8D8" /><path d="M420.992 811.008a4.928 4.928 0 0 1-4.608-3.584 5.568 5.568 0 0 1 3.584-6.144l22.016-5.632-5.632-22.016a5.568 5.568 0 0 1 3.584-6.144c2.56-0.512 5.12 1.024 6.144 3.584l7.168 26.624c0.512 1.024 0 2.56-0.512 3.584a3.456 3.456 0 0 1-3.072 2.048l-26.624 7.168c-1.024 0.512-1.536 0.512-2.048 0.512z m98.816 56.832a4.928 4.928 0 0 1-4.608-3.584l-7.168-26.624a5.568 5.568 0 0 1 3.584-6.144l26.624-7.168c2.56-0.512 5.12 1.024 6.144 3.584a5.568 5.568 0 0 1-3.584 6.144l-22.016 5.632 5.632 22.016a5.568 5.568 0 0 1-3.584 6.144h-1.024zM422.016 856.064c-1.536 0-3.072-1.024-4.096-2.56-1.536-2.56-0.512-5.12 1.536-6.656l116.736-67.072c2.56-1.536 5.12-0.512 6.656 1.536 1.536 2.56 0.512 5.12-1.536 6.656L424.576 855.04c-1.024 1.024-1.536 1.024-2.56 1.024z" fill="#D8D8D8" /><path d="M440.96 867.84h-1.024c-2.56-0.512-4.096-3.584-3.584-6.144l5.632-22.016-22.016-5.632c-2.56-0.512-4.096-3.584-3.584-6.144s3.584-4.096 6.144-3.584l26.624 7.168c2.56 0.512 4.096 3.584 3.584 6.144l-7.168 26.624a4.928 4.928 0 0 1-4.608 3.584z m98.304-56.832H538.24l-26.624-7.168c-2.56-0.512-4.096-3.584-3.584-6.144l7.168-26.624c0.512-2.56 3.584-4.096 6.144-3.584s4.096 3.584 3.584 6.144l-5.632 22.016 22.016 5.632c2.56 0.512 4.096 3.584 3.584 6.144-1.536 2.048-3.072 3.584-5.632 3.584z" fill="#D8D8D8" /><path d="M800.384 889.856a5.12 5.12 0 0 1-5.12-5.12V750.08c0-2.56 2.048-5.12 5.12-5.12s5.12 2.048 5.12 5.12v134.656c-0.512 3.072-2.56 5.12-5.12 5.12z" fill="#D8D8D8" /><path d="M800.384 784.896a5.504 5.504 0 0 1-3.584-1.536l-19.456-19.456c-2.048-2.048-2.048-5.12 0-6.656 2.048-2.048 5.12-2.048 6.656 0l15.872 15.872 15.872-15.872c2.048-2.048 5.12-2.048 6.656 0 2.048 2.048 2.048 5.12 0 6.656l-19.456 19.456c0 1.024-1.536 1.536-2.56 1.536z m19.456 94.72a5.504 5.504 0 0 1-3.584-1.536l-15.872-15.872-15.872 15.872c-2.048 2.048-5.12 2.048-6.656 0-2.048-2.048-2.048-5.12 0-6.656l19.456-19.456c2.048-2.048 5.12-2.048 6.656 0l19.456 19.456c2.048 2.048 2.048 5.12 0 6.656a5.504 5.504 0 0 1-3.584 1.536zM858.752 856.064c-1.024 0-1.536 0-2.56-0.512l-116.736-67.072c-2.56-1.536-3.072-4.096-1.536-6.656 1.536-2.56 4.096-3.072 6.656-1.536l116.736 67.072c2.56 1.536 3.072 4.096 1.536 6.656a4.672 4.672 0 0 1-4.096 2.048z" fill="#D8D8D8" /><path d="M740.992 811.008a4.928 4.928 0 0 1-4.608-3.584 5.568 5.568 0 0 1 3.584-6.144l22.016-5.632-5.632-22.016a5.568 5.568 0 0 1 3.584-6.144c2.56-0.512 5.12 1.024 6.144 3.584l7.168 26.624c0.512 1.024 0 2.56-0.512 3.584a3.456 3.456 0 0 1-3.072 2.048l-26.624 7.168c-1.024 0.512-1.536 0.512-2.048 0.512z m98.816 56.832a4.928 4.928 0 0 1-4.608-3.584l-7.168-26.624a5.568 5.568 0 0 1 3.584-6.144l26.624-7.168c2.56-0.512 5.12 1.024 6.144 3.584a5.568 5.568 0 0 1-3.584 6.144l-22.016 5.632 5.632 22.016a5.568 5.568 0 0 1-3.584 6.144h-1.024zM742.016 856.064c-1.536 0-3.072-1.024-4.096-2.56-1.536-2.56-0.512-5.12 1.536-6.656l116.736-67.072c2.56-1.536 5.12-0.512 6.656 1.536 1.536 2.56 0.512 5.12-1.536 6.656l-116.736 67.072c-1.024 1.024-1.536 1.024-2.56 1.024z" fill="#D8D8D8" /><path d="M760.96 867.84h-1.024c-2.56-0.512-4.096-3.584-3.584-6.144l5.632-22.016-22.016-5.632c-2.56-0.512-4.096-3.584-3.584-6.144s3.584-4.096 6.144-3.584l26.624 7.168c2.56 0.512 4.096 3.584 3.584 6.144l-7.168 26.624a4.928 4.928 0 0 1-4.608 3.584z m98.304-56.832h-1.024l-26.624-7.168c-2.56-0.512-4.096-3.584-3.584-6.144l7.168-26.624c0.512-2.56 3.584-4.096 6.144-3.584s4.096 3.584 3.584 6.144l-5.632 22.016 22.016 5.632c2.56 0.512 4.096 3.584 3.584 6.144-1.536 2.048-3.072 3.584-5.632 3.584z" fill="#D8D8D8" /><path d="M672.384 953.856a5.12 5.12 0 0 1-5.12-5.12V814.08c0-2.56 2.048-5.12 5.12-5.12s5.12 2.048 5.12 5.12v134.656c-0.512 3.072-2.56 5.12-5.12 5.12z" fill="#D8D8D8" /><path d="M672.384 848.896a5.504 5.504 0 0 1-3.584-1.536l-19.456-19.456c-2.048-2.048-2.048-5.12 0-6.656 2.048-2.048 5.12-2.048 6.656 0l15.872 15.872 15.872-15.872c2.048-2.048 5.12-2.048 6.656 0 2.048 2.048 2.048 5.12 0 6.656l-19.456 19.456c0 1.024-1.536 1.536-2.56 1.536z m19.456 94.72a5.504 5.504 0 0 1-3.584-1.536l-15.872-15.872-15.872 15.872c-2.048 2.048-5.12 2.048-6.656 0-2.048-2.048-2.048-5.12 0-6.656l19.456-19.456c2.048-2.048 5.12-2.048 6.656 0l19.456 19.456c2.048 2.048 2.048 5.12 0 6.656a5.504 5.504 0 0 1-3.584 1.536zM730.752 920.064c-1.024 0-1.536 0-2.56-0.512L611.456 852.48c-2.56-1.536-3.072-4.096-1.536-6.656 1.536-2.56 4.096-3.072 6.656-1.536l116.736 67.072c2.56 1.536 3.072 4.096 1.536 6.656a4.672 4.672 0 0 1-4.096 2.048z" fill="#D8D8D8" /><path d="M612.992 875.008a4.928 4.928 0 0 1-4.608-3.584 5.568 5.568 0 0 1 3.584-6.144l22.016-5.632-5.632-22.016a5.568 5.568 0 0 1 3.584-6.144c2.56-0.512 5.12 1.024 6.144 3.584l7.168 26.624c0.512 1.024 0 2.56-0.512 3.584a3.456 3.456 0 0 1-3.072 2.048l-26.624 7.168c-1.024 0.512-1.536 0.512-2.048 0.512z m98.816 56.832a4.928 4.928 0 0 1-4.608-3.584l-7.168-26.624a5.568 5.568 0 0 1 3.584-6.144l26.624-7.168c2.56-0.512 5.12 1.024 6.144 3.584a5.568 5.568 0 0 1-3.584 6.144l-22.016 5.632 5.632 22.016a5.568 5.568 0 0 1-3.584 6.144h-1.024zM614.016 920.064c-1.536 0-3.072-1.024-4.096-2.56-1.536-2.56-0.512-5.12 1.536-6.656l116.736-67.072c2.56-1.536 5.12-0.512 6.656 1.536 1.536 2.56 0.512 5.12-1.536 6.656L616.576 919.04c-1.024 1.024-1.536 1.024-2.56 1.024z" fill="#D8D8D8" /><path d="M632.96 931.84h-1.024c-2.56-0.512-4.096-3.584-3.584-6.144l5.632-22.016-22.016-5.632c-2.56-0.512-4.096-3.584-3.584-6.144s3.584-4.096 6.144-3.584l26.624 7.168c2.56 0.512 4.096 3.584 3.584 6.144l-7.168 26.624a4.928 4.928 0 0 1-4.608 3.584z m98.304-56.832h-1.024l-26.624-7.168c-2.56-0.512-4.096-3.584-3.584-6.144l7.168-26.624c0.512-2.56 3.584-4.096 6.144-3.584s4.096 3.584 3.584 6.144l-5.632 22.016 22.016 5.632c2.56 0.512 4.096 3.584 3.584 6.144-1.536 2.048-3.072 3.584-5.632 3.584z" fill="#D8D8D8" /><path d="M720.512 745.472a5.696 5.696 0 0 1-5.632-5.632V583.168c0-3.072 2.56-5.632 5.632-5.632 3.072 0 5.632 2.56 5.632 5.632v156.672c0 3.072-2.56 5.632-5.632 5.632z" fill="#D8D8D8" /><path d="M720.512 623.616a5.76 5.76 0 0 1-4.096-1.536l-22.528-22.528c-2.048-2.048-2.048-5.632 0-8.192 2.048-2.048 5.632-2.048 8.192 0l18.944 18.944 18.944-18.944c2.048-2.048 5.632-2.048 8.192 0 2.048 2.048 2.048 5.632 0 8.192l-22.528 22.528c-2.56 1.024-3.584 1.536-5.12 1.536z m22.528 110.08a5.76 5.76 0 0 1-4.096-1.536l-18.944-18.944-18.944 18.944c-2.048 2.048-5.632 2.048-8.192 0-2.048-2.048-2.048-5.632 0-8.192l22.528-22.528c2.048-2.048 5.632-2.048 8.192 0l22.528 22.528c2.048 2.048 2.048 5.632 0 8.192 0 1.024-1.536 1.536-3.072 1.536zM788.096 706.048c-1.024 0-2.048 0-3.072-0.512L649.344 627.2a5.76 5.76 0 0 1-2.048-7.68 5.76 5.76 0 0 1 7.68-2.048l135.68 78.336a5.76 5.76 0 0 1 2.048 7.68c-0.512 1.536-2.56 2.56-4.608 2.56z" fill="#D8D8D8" /><path d="M651.392 653.824c-2.56 0-4.608-1.536-5.632-4.096-1.024-3.072 1.024-6.144 4.096-7.168l25.6-6.656-6.656-25.6c-1.024-3.072 1.024-6.144 4.096-7.168s6.144 1.024 7.168 4.096l8.192 31.232c1.024 3.072-1.024 6.144-4.096 7.168l-31.232 8.192c-0.512-0.512-1.024 0-1.536 0z m115.2 66.048c-2.56 0-4.608-1.536-5.632-4.096l-8.192-31.232c-1.024-3.072 1.024-6.144 4.096-7.168l31.232-8.192c3.072-1.024 6.144 1.024 7.168 4.096s-1.024 6.144-4.096 7.168l-25.6 6.656 6.656 25.6c1.024 3.072-1.024 6.144-4.096 7.168h-1.536zM652.416 706.048a5.632 5.632 0 0 1-5.12-3.072 5.76 5.76 0 0 1 2.048-7.68l135.68-78.336a5.76 5.76 0 0 1 7.68 2.048 5.76 5.76 0 0 1-2.048 7.68l-135.68 78.336c-0.512 1.024-1.536 1.024-2.56 1.024z" fill="#D8D8D8" /><path d="M674.432 719.872h-1.536a6.272 6.272 0 0 1-4.096-7.168l6.656-25.6-25.6-6.656a6.272 6.272 0 0 1-4.096-7.168c0.512-3.072 4.096-4.608 7.168-4.096l31.232 8.192a6.272 6.272 0 0 1 4.096 7.168l-8.192 31.232c-1.024 2.56-3.072 4.096-5.632 4.096z m114.688-66.56h-1.536l-31.232-8.192c-1.536-0.512-2.56-1.536-3.584-2.56-0.512-1.536-1.024-3.072-0.512-4.096l8.192-31.232c1.024-3.072 4.096-5.12 7.168-4.096a6.272 6.272 0 0 1 4.096 7.168l-6.656 25.6 25.6 6.656a6.272 6.272 0 0 1 4.096 7.168c-0.512 2.048-3.072 3.584-5.632 3.584zM390.272 743.936a6.784 6.784 0 0 1-6.656-6.656V552.448c0-3.584 3.072-6.656 6.656-6.656 3.584 0 6.656 3.072 6.656 6.656v184.832a6.784 6.784 0 0 1-6.656 6.656z" fill="#D8D8D8" /><path d="M390.272 599.552c-1.536 0-3.584-0.512-4.608-2.048L359.04 570.88a6.464 6.464 0 0 1 0-9.216c2.56-2.56 6.656-2.56 9.216 0l22.016 22.016 22.016-22.016c2.56-2.56 6.656-2.56 9.216 0 2.56 2.56 2.56 6.656 0 9.216l-26.624 26.624c-1.024 1.536-2.56 2.048-4.608 2.048zM363.648 729.6c-1.536 0-3.584-0.512-4.608-2.048a6.464 6.464 0 0 1 0-9.216l26.624-26.624a7.68 7.68 0 0 1 4.608-2.048c1.536 0 3.584 0.512 4.608 2.048l26.624 26.624c2.56 2.56 2.56 6.656 0 9.216a6.464 6.464 0 0 1-9.216 0l-22.016-22.016-22.016 22.016a6.272 6.272 0 0 1-4.608 2.048zM470.656 697.344c-1.024 0-2.048-0.512-3.584-1.024L306.816 603.648a7.36 7.36 0 0 1-2.56-9.216 7.36 7.36 0 0 1 9.216-2.56l160.256 93.184a7.36 7.36 0 0 1 2.56 9.216c-1.024 2.048-3.584 3.072-5.632 3.072z" fill="#D8D8D8" /><path d="M308.864 635.392a7.04 7.04 0 0 1-6.656-5.12 6.592 6.592 0 0 1 4.608-8.192l30.208-8.192-8.192-30.208a6.592 6.592 0 0 1 4.608-8.192 6.592 6.592 0 0 1 8.192 4.608l9.728 36.352c0.512 1.536 0 3.584-0.512 5.12a7.936 7.936 0 0 1-4.096 3.072l-36.864 9.728c0.512 1.024 0 1.024-1.024 1.024z m136.192 78.336a7.04 7.04 0 0 1-6.656-5.12l-9.728-36.864a6.592 6.592 0 0 1 4.608-8.192l36.864-9.728a6.592 6.592 0 0 1 8.192 4.608 6.592 6.592 0 0 1-4.608 8.192l-30.208 8.192 8.192 30.208a6.592 6.592 0 0 1-4.608 8.192c-1.024 0.512-1.536 0.512-2.048 0.512zM310.4 697.344c-2.56 0-4.608-1.024-5.632-3.584-2.048-3.072-0.512-7.168 2.56-9.216l160.256-92.672c3.072-2.048 7.168-0.512 9.216 2.56 2.048 3.072 0.512 7.168-2.56 9.216L313.984 696.32c-1.536 1.024-2.56 1.024-3.584 1.024z" fill="#D8D8D8" /><path d="M336 713.728h-1.536a6.592 6.592 0 0 1-4.608-8.192l8.192-30.208-30.208-8.192a6.592 6.592 0 0 1-4.608-8.192 6.592 6.592 0 0 1 8.192-4.608l36.864 9.728a7.936 7.936 0 0 1 4.096 3.072 6.08 6.08 0 0 1 0.512 5.12l-9.728 36.352c-1.536 3.072-4.096 5.12-7.168 5.12z m135.68-78.336h-1.536l-36.864-9.728a6.592 6.592 0 0 1-4.608-8.192l9.728-36.864A6.592 6.592 0 0 1 446.592 576a6.592 6.592 0 0 1 4.608 8.192l-8.192 30.208 30.208 8.192a6.592 6.592 0 0 1 4.608 8.192c-0.512 2.56-3.072 4.608-6.144 4.608z" fill="#D8D8D8" /></svg>