<?xml version="1.0" standalone="no"?><!DOCTYPE svg PUBLIC "-//W3C//DTD SVG 1.1//EN" "http://www.w3.org/Graphics/SVG/1.1/DTD/svg11.dtd"><svg class="icon" width="200px" height="200.00px" viewBox="0 0 1024 1024" version="1.1" xmlns="http://www.w3.org/2000/svg"><path d="M920.96 499.904c0-103.424-88.576-186.88-197.12-186.88-108.544 0-197.12 83.968-197.12 186.88v186.88h199.68c107.52-1.024 194.56-84.48 194.56-186.88z" fill="#EAEAEA" /><path d="M797.056 490.688c0-59.392-26.624-112.64-69.12-148.992 0.512-5.632 1.024-11.264 1.024-16.896a196.672 196.672 0 0 0-197.12-196.096c-108.544 0-197.632 88.064-197.632 196.608 0 2.048 0 3.584 0.512 5.632a187.52 187.52 0 0 0-269.824 168.448 187.968 187.968 0 0 0 181.248 187.392v0.512h361.984v-0.512c104.96-4.608 188.928-90.624 188.928-196.096z" fill="#F7F7F7" /><path d="M674.304 834.368h-0.192c-45.76-4.288-74.368-12.864-139.072-37.888a454.464 454.464 0 0 0-401.088 24.448c-0.64 0.256-1.152 0.768-1.792 1.088a290.88 290.88 0 0 0-6.784 4.224l0.128 0.128a24.064 24.064 0 0 0-7.488 17.344c0 13.632 11.52 24.704 25.856 24.704 3.84 0 7.488-0.96 10.816-2.432l0.128 0.192c1.6-1.088 161.856-106.624 360.512-24.64 70.592 27.264 104.96 37.056 156.288 41.6v-0.448c0.96 0.064 1.792 0.512 2.688 0.512a24.96 24.96 0 0 0 25.6-24.448 24.96 24.96 0 0 0-25.6-24.384zM742.4 834.368a24.96 24.96 0 0 0-25.536 24.384c0 13.504 11.52 24.448 25.6 24.448 14.08 0 25.472-10.944 25.472-24.448a24.96 24.96 0 0 0-25.536-24.384zM903.744 794.304a26.368 26.368 0 0 0-17.728 6.912l-0.256-0.192c-0.512 0.448-24.32 24.832-86.464 34.688l0.064 0.384a24.32 24.32 0 0 0-16.576 22.656c0 13.504 11.392 24.448 25.536 24.448 0.896 0 1.728-0.448 2.56-0.512l0.192 0.512c63.104-10.688 94.08-34.432 105.536-43.2a24.192 24.192 0 0 0 12.992-20.992 25.28 25.28 0 0 0-25.856-24.704z" fill="#D8D8D8" /></svg>