<?xml version="1.0" standalone="no"?><!DOCTYPE svg PUBLIC "-//W3C//DTD SVG 1.1//EN" "http://www.w3.org/Graphics/SVG/1.1/DTD/svg11.dtd"><svg class="icon" width="200px" height="200.00px" viewBox="0 0 1024 1024" version="1.1" xmlns="http://www.w3.org/2000/svg"><path d="M930.944 442.88c0-103.424-88.576-186.88-197.12-186.88-108.544 0-197.12 83.968-197.12 186.88v186.88h199.68c107.52-1.024 194.56-84.48 194.56-186.88z" fill="#EAEAEA" /><path d="M807.04 433.664c0-59.392-26.624-112.64-69.12-148.992 0.512-5.632 1.024-11.264 1.024-16.896a196.672 196.672 0 0 0-197.12-196.096c-108.544 0-197.632 88.064-197.632 196.608 0 2.048 0 3.584 0.512 5.632A187.52 187.52 0 0 0 74.88 442.368 187.968 187.968 0 0 0 256.128 629.76v0.512h361.984V629.76c104.96-4.608 188.928-90.624 188.928-196.096z" fill="#F7F7F7" /><path d="M312.96 709.632a30.72 30.72 0 1 0 61.44 0 30.72 30.72 0 0 0-61.44 0zM467.584 901.632a25.6 25.6 0 1 0 51.2 0 25.6 25.6 0 0 0-51.2 0zM530.048 740.864a16.896 16.896 0 1 0 33.792 0 16.896 16.896 0 0 0-33.792 0zM350.848 878.592a16.896 16.896 0 1 0 33.792 0 16.896 16.896 0 0 0-33.792 0zM706.176 802.304a27.648 27.648 0 1 0 55.296 0 27.648 27.648 0 0 0-55.296 0zM222.336 775.168a20.48 20.48 0 1 0 40.96 0 20.48 20.48 0 0 0-40.96 0z" fill="#D8D8D8" /><path d="M627.84 793.088H330.88a11.904 11.904 0 0 1-11.776-11.776c0-6.144 5.12-11.776 11.776-11.776h296.96c23.04 0 41.984-18.944 41.984-41.984a42.176 42.176 0 0 0-41.984-41.984 11.904 11.904 0 0 1-11.776-11.776c0-6.144 5.12-11.776 11.776-11.776 35.84 0 65.024 29.184 65.024 65.024 0 36.864-29.184 66.048-65.024 66.048zM616.064 949.248a11.904 11.904 0 0 1-11.776-11.776c0-6.144 5.12-11.776 11.776-11.776 23.04 0 41.984-18.944 41.984-41.984a42.176 42.176 0 0 0-41.984-41.984H272a11.904 11.904 0 0 1-11.776-11.776c0-6.144 5.12-11.776 11.776-11.776h344.064c35.84 0 65.024 29.184 65.024 65.024 0 36.864-29.184 66.048-65.024 66.048z" fill="#D8D8D8" /></svg>