<?xml version="1.0" standalone="no"?><!DOCTYPE svg PUBLIC "-//W3C//DTD SVG 1.1//EN" "http://www.w3.org/Graphics/SVG/1.1/DTD/svg11.dtd"><svg class="icon" width="200px" height="200.00px" viewBox="0 0 1024 1024" version="1.1" xmlns="http://www.w3.org/2000/svg"><path d="M238.08 802.816a30.72 30.72 0 1 0 61.44 0 30.72 30.72 0 1 0-61.44 0zM335.36 802.816a30.72 30.72 0 1 0 61.44 0 30.72 30.72 0 1 0-61.44 0zM432.128 802.816a30.72 30.72 0 1 0 61.44 0 30.72 30.72 0 1 0-61.44 0zM529.408 802.816a30.72 30.72 0 1 0 61.44 0 30.72 30.72 0 1 0-61.44 0zM626.688 802.816a30.72 30.72 0 1 0 61.44 0 30.72 30.72 0 1 0-61.44 0zM723.968 802.816a30.72 30.72 0 1 0 61.44 0 30.72 30.72 0 1 0-61.44 0z" fill="#D8D8D8" /><path d="M940.032 502.784c0-103.424-88.576-186.88-197.12-186.88S545.28 399.36 545.28 502.784v186.88h199.68c108.032-1.024 195.072-84.48 195.072-186.88z" fill="#EAEAEA" /><path d="M815.616 493.568c0-59.392-26.624-112.64-69.12-148.992 0.512-5.632 1.024-11.264 1.024-16.896 0-108.544-88.576-196.096-197.12-196.096s-197.632 88.064-197.632 196.608c0 2.048 0 3.584 0.512 5.632-24.576-12.288-52.736-18.944-81.92-18.944-103.424 0-187.392 83.968-187.392 187.392 0 101.376 80.896 183.808 181.248 187.392v0.512H627.2v-0.512c104.96-4.608 188.416-90.624 188.416-196.096z" fill="#F7F7F7" /></svg>