<?xml version="1.0" standalone="no"?><!DOCTYPE svg PUBLIC "-//W3C//DTD SVG 1.1//EN" "http://www.w3.org/Graphics/SVG/1.1/DTD/svg11.dtd"><svg class="icon" width="200px" height="200.00px" viewBox="0 0 1024 1024" version="1.1" xmlns="http://www.w3.org/2000/svg"><path d="M920.96 435.328c0-103.424-88.576-186.88-197.12-186.88-109.056 0-197.12 83.968-197.12 186.88v186.88h199.68c107.52-1.024 194.56-84.48 194.56-186.88z" fill="#EAEAEA" /><path d="M796.544 426.112c0-59.392-26.624-112.64-69.12-148.992 0.512-5.632 1.024-11.264 1.024-16.896a196.672 196.672 0 0 0-197.12-196.096c-108.544 0-197.632 88.064-197.632 196.608 0 2.048 0 3.584 0.512 5.632a187.52 187.52 0 0 0-269.312 168.448 187.968 187.968 0 0 0 181.248 187.392v0.512h361.984v-0.512a196.672 196.672 0 0 0 188.416-196.096z" fill="#F7F7F7" /><path d="M486.272 915.584a7.872 7.872 0 0 1-7.68-7.68v-206.848c0-4.096 3.584-7.68 7.68-7.68s7.68 3.584 7.68 7.68v206.848c-0.512 4.096-3.584 7.68-7.68 7.68z" fill="#D8D8D8" /><path d="M486.272 754.816a6.592 6.592 0 0 1-5.12-2.048l-29.696-29.696a7.424 7.424 0 0 1 0-10.752 7.424 7.424 0 0 1 10.752 0l24.576 24.576 24.576-24.576a7.424 7.424 0 0 1 10.752 0 7.424 7.424 0 0 1 0 10.752l-29.696 29.696c-2.56 1.024-4.608 2.048-6.144 2.048z m-30.208 144.896a6.592 6.592 0 0 1-5.12-2.048 7.424 7.424 0 0 1 0-10.752l29.696-29.696a6.592 6.592 0 0 1 5.12-2.048c2.048 0 4.096 1.024 5.12 2.048l29.696 29.696a7.424 7.424 0 0 1 0 10.752 7.424 7.424 0 0 1-10.752 0l-24.576-24.576-24.576 24.576c-0.512 1.536-2.56 2.048-4.608 2.048zM575.36 863.872a9.472 9.472 0 0 1-3.584-1.024l-179.2-103.424a7.488 7.488 0 1 1 7.68-12.8l179.2 103.424a7.488 7.488 0 0 1 2.56 10.24 8.768 8.768 0 0 1-6.656 3.584z" fill="#D8D8D8" /><path d="M395.136 794.24a7.552 7.552 0 0 1-7.168-5.632 7.744 7.744 0 0 1 5.12-9.216l33.792-9.216-9.216-33.792a7.744 7.744 0 0 1 5.12-9.216 7.744 7.744 0 0 1 9.216 5.12l10.752 40.96a10.176 10.176 0 0 1-0.512 5.632 8.192 8.192 0 0 1-4.608 3.584l-40.96 10.752c0 1.024-0.512 1.024-1.536 1.024z m152.064 87.552a7.552 7.552 0 0 1-7.168-5.632l-10.752-40.96a7.744 7.744 0 0 1 5.12-9.216l40.96-10.752a7.744 7.744 0 0 1 9.216 5.12 7.744 7.744 0 0 1-5.12 9.216l-33.792 9.216 9.216 33.792a7.744 7.744 0 0 1-5.12 9.216h-2.56zM396.672 863.872a8.768 8.768 0 0 1-6.656-3.584 7.488 7.488 0 0 1 2.56-10.24l179.2-103.424a7.488 7.488 0 1 1 7.68 12.8l-179.2 103.424a9.472 9.472 0 0 1-3.584 1.024z" fill="#D8D8D8" /><path d="M425.344 881.792c-0.512 0-1.536 0-2.048-0.512-4.096-1.024-6.144-5.12-5.12-9.216l9.216-33.792-33.792-9.216c-4.096-1.024-6.144-5.12-5.12-9.216 1.024-4.096 5.12-6.144 9.216-5.12l40.96 10.752c4.096 1.024 6.144 5.12 5.12 9.216l-10.752 40.96c-1.536 4.096-4.608 6.144-7.68 6.144z m151.552-87.552c-0.512 0-1.536 0-2.048-0.512l-40.96-10.752c-4.096-1.024-6.144-5.12-5.12-9.216l10.752-40.96c1.024-4.096 5.12-6.144 9.216-5.12 4.096 1.024 6.144 5.12 5.12 9.216l-9.216 33.792 33.792 9.216c4.096 1.024 6.144 5.12 5.12 9.216-0.512 3.072-3.584 5.12-6.656 5.12z" fill="#D8D8D8" /></svg>