<?xml version="1.0" standalone="no"?><!DOCTYPE svg PUBLIC "-//W3C//DTD SVG 1.1//EN" "http://www.w3.org/Graphics/SVG/1.1/DTD/svg11.dtd"><svg class="icon" width="200px" height="200.00px" viewBox="0 0 1024 1024" version="1.1" xmlns="http://www.w3.org/2000/svg"><path d="M476.992 774.464a61.568 61.568 0 0 1-118.784-31.744c8.704-32.768 85.504-81.92 85.504-81.92s41.984 80.896 33.28 113.664z m209.92 119.808a58.624 58.624 0 0 1-113.152-30.208c8.192-31.232 81.408-77.824 81.408-77.824s39.936 76.8 31.744 108.032z" fill="#16A9D4" /><path d="M959.296 424.32c0-100.416-85.504-181.76-191.488-181.76S576.32 323.84 576.32 424.32v181.76h194.048c104.448-1.6 188.928-82.496 188.928-181.76z" fill="#EAEAEA" /><path d="M838.4 415.552c0-57.856-26.048-109.568-67.008-144.384 0.512-5.632 1.024-10.752 1.024-16.384a190.976 190.976 0 0 0-191.488-190.464 190.656 190.656 0 0 0-191.488 190.464c0 2.048 0 3.584 0.512 5.632a180.8 180.8 0 0 0-79.36-18.432 182.016 182.016 0 1 0-6.144 364.032v0.512h351.232v-1.024A190.528 190.528 0 0 0 838.4 415.552z" fill="#F7F7F7" /></svg>