<?xml version="1.0" standalone="no"?><!DOCTYPE svg PUBLIC "-//W3C//DTD SVG 1.1//EN" "http://www.w3.org/Graphics/SVG/1.1/DTD/svg11.dtd"><svg class="icon" width="200px" height="200.00px" viewBox="0 0 1024 1024" version="1.1" xmlns="http://www.w3.org/2000/svg"><path d="M527.744 901.888a62.848 62.848 0 0 1-77.312 44.544 62.848 62.848 0 0 1-44.544-77.312c9.216-33.792 88.064-84.48 88.064-84.48s42.496 83.456 33.792 117.248z" fill="#16A9D4" /><path d="M920.96 499.968c0-103.424-88.576-186.88-197.12-186.88-109.056 0-197.12 83.968-197.12 186.88v186.88h199.68c107.52-1.536 194.56-84.48 194.56-186.88z" fill="#EAEAEA" /><path d="M796.544 490.752c0-59.392-26.624-112.64-69.12-148.992 0.512-5.632 1.024-11.264 1.024-16.896a196.672 196.672 0 0 0-197.12-196.096c-108.544 0-197.632 88.064-197.632 196.608 0 2.048 0 3.584 0.512 5.632a183.552 183.552 0 0 0-81.92-18.944 186.88 186.88 0 0 0-187.392 187.392 187.968 187.968 0 0 0 181.248 187.392v0.512h361.984v-0.512a196.672 196.672 0 0 0 188.416-196.096z" fill="#F7F7F7" /></svg>