<?xml version="1.0" standalone="no"?><!DOCTYPE svg PUBLIC "-//W3C//DTD SVG 1.1//EN" "http://www.w3.org/Graphics/SVG/1.1/DTD/svg11.dtd"><svg class="icon" width="200px" height="200.00px" viewBox="0 0 1024 1024" version="1.1" xmlns="http://www.w3.org/2000/svg"><path d="M303.552 828.032a61.568 61.568 0 0 1-118.784-31.744c8.704-32.768 85.504-81.92 85.504-81.92s41.984 80.896 33.28 113.664z m435.712 72.192a53.888 53.888 0 0 1-103.936-28.16c7.68-28.672 75.264-71.68 75.264-71.68s36.352 70.656 28.672 99.84z" fill="#16A9D4" /><path d="M920.96 435.84c0-103.424-88.512-186.88-197.12-186.88-108.48 0-197.12 83.968-197.12 186.88v186.88h199.68c107.52-1.536 194.56-84.48 194.56-186.88z" fill="#EAEAEA" /><path d="M796.608 426.624c0-59.392-26.624-112.64-69.12-148.992 0.512-5.632 1.024-11.264 1.024-16.896a196.672 196.672 0 0 0-197.12-196.096c-108.544 0-197.632 88.064-197.632 196.096 0 2.048 0 3.584 0.512 5.632a187.52 187.52 0 0 0-269.312 168.448 187.968 187.968 0 0 0 181.248 187.392v0.512h361.984v-0.512a196.16 196.16 0 0 0 188.416-195.584z" fill="#F7F7F7" /><path d="M506.24 496.256l-16.832 202.24H352.192z" fill="#EDA915" /><path d="M441.792 894.592l16.896-202.24H595.84z" fill="#EDA915" /></svg>