<?xml version="1.0" standalone="no"?><!DOCTYPE svg PUBLIC "-//W3C//DTD SVG 1.1//EN" "http://www.w3.org/Graphics/SVG/1.1/DTD/svg11.dtd"><svg class="icon" width="200px" height="200.00px" viewBox="0 0 1024 1024" version="1.1" xmlns="http://www.w3.org/2000/svg"><path d="M539.328 918.528a53.056 53.056 0 0 1-64.512 37.376 53.056 53.056 0 0 1-37.376-64.512c7.68-28.16 73.216-70.144 73.216-70.144s36.352 69.12 28.672 97.28z m-151.552-128a57.856 57.856 0 0 1-70.656 40.96 57.856 57.856 0 0 1-40.96-70.656c8.192-30.72 80.384-76.8 80.384-76.8s39.424 75.776 31.232 106.496z m354.304 14.848a61.568 61.568 0 0 1-118.784-31.744c8.704-32.768 85.504-81.92 85.504-81.92s41.984 80.896 33.28 113.664z" fill="#16A9D4" /><path d="M959.68 424.96c0-100.352-86.016-181.76-192-181.76s-192 81.408-192 181.76v181.76h194.048c105.472-1.024 189.952-81.92 189.952-181.76z" fill="#EAEAEA" /><path d="M838.848 416.256c0-57.856-26.112-109.568-67.072-144.896 0.512-5.632 1.024-10.752 1.024-16.384 0-105.472-86.016-190.464-192-190.464a191.104 191.104 0 0 0-191.488 190.976c0 2.048 0 3.584 0.512 5.632a182.016 182.016 0 0 0-261.632 163.84 181.76 181.76 0 0 0 176.64 181.76v0.512h351.744V606.72a191.232 191.232 0 0 0 182.272-190.464z" fill="#F7F7F7" /></svg>