<?xml version="1.0" standalone="no"?><!DOCTYPE svg PUBLIC "-//W3C//DTD SVG 1.1//EN" "http://www.w3.org/Graphics/SVG/1.1/DTD/svg11.dtd"><svg class="icon" width="200px" height="200.00px" viewBox="0 0 1024 1024" version="1.1" xmlns="http://www.w3.org/2000/svg"><path d="M920.128 436.032c0-103.424-88.576-186.88-197.12-186.88-108.544 0-197.12 83.968-197.12 186.88v186.88h199.68c107.52-1.024 194.56-84.48 194.56-186.88z" fill="#EAEAEA" /><path d="M796.224 426.816c0-59.392-26.624-112.64-69.12-148.992 0.512-5.632 1.024-11.264 1.024-16.896a196.672 196.672 0 0 0-197.12-196.096c-108.544 0-197.632 88.064-197.632 196.608 0 2.048 0 3.584 0.512 5.632a187.52 187.52 0 0 0-269.824 168.448 187.968 187.968 0 0 0 181.248 187.392v0.512h361.984v-0.512c104.96-4.608 188.928-90.624 188.928-196.096z" fill="#F7F7F7" /><path d="M279.104 712.96a33.28 33.28 0 1 0 66.56 0 33.28 33.28 0 0 0-66.56 0zM425.024 751.936a32.768 32.768 0 1 0 65.536 0 32.768 32.768 0 0 0-65.536 0zM450.112 892.736a32.768 32.768 0 1 0 65.536 0 32.768 32.768 0 0 0-65.536 0zM574.528 843.52a32.768 32.768 0 1 0 65.536 0 32.768 32.768 0 0 0-65.536 0zM533.568 757.056a16.896 16.896 0 1 0 33.792 0 16.896 16.896 0 0 0-33.792 0zM604.736 922.88a16.896 16.896 0 1 0 33.792 0 16.896 16.896 0 0 0-33.792 0zM372.8 811.84a16.896 16.896 0 1 0 33.792 0 16.896 16.896 0 0 0-33.792 0zM289.344 890.688a32.768 32.768 0 1 0 65.536 0 32.768 32.768 0 0 0-65.536 0zM603.712 694.592a32.768 32.768 0 1 0 65.536 0 32.768 32.768 0 0 0-65.536 0z" fill="#D8D8D8" /></svg>