<?xml version="1.0" standalone="no"?><!DOCTYPE svg PUBLIC "-//W3C//DTD SVG 1.1//EN" "http://www.w3.org/Graphics/SVG/1.1/DTD/svg11.dtd"><svg class="icon" width="200px" height="200.00px" viewBox="0 0 1024 1024" version="1.1" xmlns="http://www.w3.org/2000/svg"><path d="M303.168 828.16a61.568 61.568 0 0 1-118.784-31.808c8.704-32.768 85.504-81.92 85.504-81.92s41.984 80.896 33.28 113.664z m435.712 71.68a53.888 53.888 0 0 1-103.936-28.16c7.68-28.736 75.264-71.68 75.264-71.68s36.352 71.104 28.672 99.84z" fill="#16A9D4" /><path d="M920.64 435.392c0-103.424-88.576-186.88-197.12-186.88-108.544 0-197.12 83.968-197.12 186.88v186.88h199.68c107.52-1.024 194.56-84.48 194.56-186.88z" fill="#EAEAEA" /><path d="M796.16 426.24c0-59.456-26.56-112.64-69.12-149.056 0.576-5.632 1.088-11.264 1.088-16.896a196.672 196.672 0 0 0-197.12-196.096c-108.544 0-197.632 88.064-197.632 196.608 0 2.048 0 3.584 0.512 5.632A187.584 187.584 0 0 0 64 434.88a187.968 187.968 0 0 0 181.248 187.392v0.512h361.984v-0.512c104.96-4.608 188.928-90.624 188.928-196.096z" fill="#F7F7F7" /><path d="M490.048 847.04a6.784 6.784 0 0 1-6.656-6.656v-183.296c0-3.584 3.072-6.656 6.656-6.656 3.584 0 6.656 3.072 6.656 6.656v183.296a6.784 6.784 0 0 1-6.656 6.656z" fill="#D8D8D8" /><path d="M490.048 704.192c-1.536 0-3.584-0.512-4.608-2.048l-26.624-26.624a6.464 6.464 0 0 1 0-9.216c2.56-2.56 6.656-2.56 9.216 0l22.016 22.016 22.016-22.016c2.56-2.56 6.656-2.56 9.216 0 2.56 2.56 2.56 6.656 0 9.216l-26.624 26.624a6.272 6.272 0 0 1-4.608 2.048z m26.624 129.024c-1.536 0-3.584-0.512-4.608-2.048l-22.016-22.016-22.016 22.016a6.464 6.464 0 0 1-9.216 0 6.464 6.464 0 0 1 0-9.216l26.624-26.624c2.56-2.56 6.656-2.56 9.216 0l26.624 26.624c2.56 2.56 2.56 6.656 0 9.216-1.536 1.024-3.072 2.048-4.608 2.048zM569.408 800.96c-1.024 0-2.048-0.512-3.072-1.024l-158.72-91.648c-3.072-2.048-4.096-5.632-2.56-9.216 2.048-3.072 5.632-4.096 9.216-2.56l158.72 91.648c3.072 2.048 4.096 5.632 2.56 9.216-2.048 2.56-4.096 3.584-6.144 3.584z" fill="#D8D8D8" /><path d="M409.6 739.52a6.08 6.08 0 0 1-6.08-5.12 6.592 6.592 0 0 1 4.608-8.192l29.696-8.192-8.192-29.696a6.592 6.592 0 0 1 4.608-8.192 6.592 6.592 0 0 1 8.192 4.608l9.728 36.352a6.592 6.592 0 0 1-4.608 8.192l-36.352 9.728c-0.512 0.512-1.024 0.512-1.536 0.512z m134.208 77.824a6.08 6.08 0 0 1-6.144-5.12l-9.728-36.352c-0.512-1.536 0-3.584 0.512-5.12a7.936 7.936 0 0 1 4.096-3.072l36.352-9.728a6.592 6.592 0 0 1 8.192 4.608 6.592 6.592 0 0 1-4.608 8.192l-29.696 8.192 8.192 29.696a6.592 6.592 0 0 1-4.608 8.192c-1.536 0-2.048 0.512-2.56 0.512zM410.688 800.96c-2.048 0-4.608-1.024-5.632-3.072-2.048-3.072-0.512-7.168 2.56-9.216l158.72-91.648c3.072-2.048 7.168-0.512 9.216 2.56 2.048 3.072 0.512 7.168-2.56 9.216l-158.72 91.648c-1.536 0.512-2.56 0.512-3.584 0.512z" fill="#D8D8D8" /><path d="M435.776 816.832h-1.536a6.592 6.592 0 0 1-4.608-8.192l8.192-29.696-29.696-8.192a6.592 6.592 0 0 1-4.608-8.192 6.592 6.592 0 0 1 8.192-4.608l36.352 9.728a6.592 6.592 0 0 1 4.608 8.192l-9.728 36.352a7.68 7.68 0 0 1-7.168 4.608z m134.656-77.312h-1.536l-36.352-9.728a6.592 6.592 0 0 1-4.608-8.192l9.728-36.352a6.592 6.592 0 0 1 8.192-4.608 6.592 6.592 0 0 1 4.608 8.192l-8.192 29.696 29.696 8.192a6.592 6.592 0 0 1 4.608 8.192c-0.512 2.56-3.072 4.608-6.144 4.608z" fill="#D8D8D8" /></svg>