<?xml version="1.0" standalone="no"?><!DOCTYPE svg PUBLIC "-//W3C//DTD SVG 1.1//EN" "http://www.w3.org/Graphics/SVG/1.1/DTD/svg11.dtd"><svg class="icon" width="200px" height="200.00px" viewBox="0 0 1024 1024" version="1.1" xmlns="http://www.w3.org/2000/svg"><path d="M539.392 922.112a44.608 44.608 0 0 1-54.784 31.744 44.608 44.608 0 0 1-31.744-54.784c6.144-24.064 62.464-59.392 62.464-59.392s30.208 58.368 24.064 82.432z m-155.136-147.456a53.12 53.12 0 0 1-65.024 37.376 53.12 53.12 0 0 1-37.376-65.024c7.68-28.16 74.24-70.656 74.24-70.656s35.84 69.632 28.16 98.304z m349.696-10.24a49.536 49.536 0 0 1-60.416 34.816 49.536 49.536 0 0 1-34.816-60.416c7.168-26.112 68.608-66.048 68.608-66.048s33.792 65.536 26.624 91.648z m-174.08-13.824a44.608 44.608 0 0 1-54.784 31.744 44.608 44.608 0 0 1-31.744-54.784c6.144-24.064 62.464-59.392 62.464-59.392s30.208 58.88 24.064 82.432z m136.192 169.984a40.32 40.32 0 0 1-49.664 28.672 40.32 40.32 0 0 1-28.672-49.664c5.632-21.504 56.832-54.272 56.832-54.272s27.648 53.248 21.504 75.264z m-327.68 5.632a41.344 41.344 0 1 1-79.872-21.504c6.144-22.016 57.344-55.296 57.344-55.296s28.672 54.784 22.528 76.8z" fill="#16A9D4" /><path d="M960.256 424.96c0-100.352-86.016-181.76-192-181.76s-192 81.408-192 181.76v181.76h194.048c105.472-1.024 189.952-81.92 189.952-181.76z" fill="#EAEAEA" /><path d="M839.424 416.256c0-57.856-26.112-109.568-67.072-144.896 0.512-5.632 1.024-10.752 1.024-16.384 0-105.472-86.016-190.464-192-190.464a191.104 191.104 0 0 0-191.488 190.976c0 2.048 0 3.584 0.512 5.632a180.8 180.8 0 0 0-79.36-18.432 181.76 181.76 0 1 0-6.144 363.52v0.512h351.744v-0.512a190.528 190.528 0 0 0 182.784-189.952z" fill="#F7F7F7" /></svg>