<?xml version="1.0" standalone="no"?><!DOCTYPE svg PUBLIC "-//W3C//DTD SVG 1.1//EN" "http://www.w3.org/Graphics/SVG/1.1/DTD/svg11.dtd"><svg t="1683473687842" class="icon" viewBox="0 0 1024 1024" version="1.1" xmlns="http://www.w3.org/2000/svg" p-id="3565" xmlns:xlink="http://www.w3.org/1999/xlink" width="200" height="200"><path d="M5.1 831.7h253.5c2.8 0 5.1-2.3 5.1-5.1s-2.3-5.1-5.1-5.1H5.1c-2.8 0-5.1 2.3-5.1 5.1s2.3 5.1 5.1 5.1z m314.3 0h55.8c2.8 0 5.1-2.3 5.1-5.1s-2.3-5.1-5.1-5.1h-55.8c-2.8 0-5.1 2.3-5.1 5.1s2.3 5.1 5.1 5.1z m106.5 0h253.5c2.8 0 5.1-2.3 5.1-5.1s-2.3-5.1-5.1-5.1H425.9c-2.8 0-5.1 2.3-5.1 5.1s2.3 5.1 5.1 5.1z m314.4 0H796c2.8 0 5.1-2.3 5.1-5.1s-2.3-5.1-5.1-5.1h-55.8c-2.8 0-5.1 2.3-5.1 5.1s2.4 5.1 5.2 5.1z m106.4 0h172.4c2.8 0 5.1-2.3 5.1-5.1s-2.3-5.1-5.1-5.1H846.7c-2.8 0-5.1 2.3-5.1 5.1s2.3 5.1 5.1 5.1z" fill="#162003" p-id="3566"></path><path d="M479.1 561.3h121.7v324.5H479.1z" fill="#5A2B10" p-id="3567"></path><path d="M514.6 561.3h86.2v324.5h-86.2 35.5V561.3h-35.5z" fill="#3B1A07" p-id="3568"></path><path d="M438.6 571.5c5.6 0 10.2-4.5 10.2-10.1h-20.3v253.5c5.6 0 10.1-4.5 10.1-10.1V571.5zM540 825c0-5.6 4.5-10.1 10.1-10.1v71H428.4v-10.1H540V825z" fill="#162003" p-id="3569"></path><path d="M635 470.1h97.6L537.4 145.6 342.2 470.1h97.6l-97.6 162.2h390.4L635 470.1z" fill="#1AAD19" p-id="3570"></path><path d="M512.1 187.7l25.4-42.1 195.2 324.5H635l97.6 162.2H512.1 682l-97.6-162.2H682L512.1 187.7z" fill="#0D750C" p-id="3571"></path><path d="M597.2 339.1c-1.4-2.4-0.7-5.5 1.7-7 2.4-1.4 5.5-0.7 7 1.7l80.4 133.6c2 3.4-0.4 7.7-4.3 7.7h-97.6c-2.8 0-5.1-2.3-5.1-5.1s2.3-5.1 5.1-5.1H673l-75.8-125.8z m6.1-9.6c1.4 2.4 0.7 5.5-1.7 7-2.4 1.4-5.5 0.7-7-1.7l-2.6-4.3c-1.4-2.4-0.7-5.5 1.7-7 2.4-1.4 5.5-0.7 7 1.7l2.6 4.3zM443.9 226.7c-1.4 2.4-4.6 3.2-7 1.7s-3.2-4.6-1.7-7l47.2-78.5c2-3.3 6.7-3.3 8.7 0l83.5 138.8c1.4 2.4 0.7 5.5-1.7 7-2.4 1.4-5.5 0.7-7-1.7l-79.1-131.5-42.9 71.2z m-11.3-0.9c1.4-2.4 4.6-3.2 7-1.7s3.2 4.6 1.7 7l-2.6 4.3c-1.4 2.4-4.6 3.2-7 1.7s-3.2-4.6-1.7-7l2.6-4.3zM300.5 465h18.3c2.8 0 5.1 2.3 5.1 5.1s-2.3 5.1-5.1 5.1h-27.3c-3.9 0-6.4-4.3-4.3-7.7l116.6-193.9c1.4-2.4 4.6-3.2 7-1.7 2.4 1.4 3.2 4.6 1.7 7L300.5 465z m23.4 10.1c-2.8 0-5.1-2.3-5.1-5.1s2.3-5.1 5.1-5.1h5.1c2.8 0 5.1 2.3 5.1 5.1s-2.3 5.1-5.1 5.1h-5.1z m55.7 0c-2.8 0-5.1-2.3-5.1-5.1s2.3-5.1 5.1-5.1h9.5c3.9 0 6.4 4.3 4.3 7.7l-93 154.6h45.7c2.8 0 5.1 2.3 5.1 5.1s-2.3 5.1-5.1 5.1h-54.7c-3.9 0-6.4-4.3-4.3-7.7l93-154.6h-0.5z m-28.3 162.3c-2.8 0-5.1-2.3-5.1-5.1s2.3-5.1 5.1-5.1h5.1c2.8 0 5.1 2.3 5.1 5.1s-2.3 5.1-5.1 5.1h-5.1z m55.7 0c-2.8 0-5.1-2.3-5.1-5.1s2.3-5.1 5.1-5.1h253.5c2.8 0 5.1 2.3 5.1 5.1s-2.3 5.1-5.1 5.1H407z m258.6 0c-2.8 0-5.1-2.3-5.1-5.1s2.3-5.1 5.1-5.1h5.1c2.8 0 5.1 2.3 5.1 5.1s-2.3 5.1-5.1 5.1h-5.1z m0.4-41.5c1.4 2.4 0.7 5.5-1.7 7-2.4 1.4-5.5 0.7-7-1.7L580 472.7c-1.4-2.4-0.7-5.5 1.7-7 2.4-1.4 5.5-0.7 7 1.7L666 595.9z" fill="#162003" p-id="3572"></path><path d="M811.2 143m-103.9 0a103.9 103.9 0 1 0 207.8 0 103.9 103.9 0 1 0-207.8 0Z" fill="#EB6619" p-id="3573"></path><path d="M785.9 243.9c8.1 2 16.6 3.1 25.4 3.1 57.4 0 103.9-46.5 103.9-103.9s-46.6-104-104-104c-8.7 0-17.2 1.1-25.4 3.1C831 53.5 864.5 94.4 864.5 143s-33.5 89.5-78.6 100.9z" fill="#C1571A" p-id="3574"></path><path d="M760.5 252c-2.8 0-5.1-2.3-5.1-5.1s2.3-5.1 5.1-5.1c54.6 0 98.9-44.3 98.9-98.9 0-29.9-13.3-57.5-35.9-76.2-2.2-1.8-2.5-5-0.7-7.1s5-2.5 7.1-0.7c24.9 20.6 39.5 51.1 39.5 84 0.1 60.3-48.7 109.1-108.9 109.1z m65.3-196.3c2.2 1.7 2.7 4.9 1 7.1s-4.9 2.7-7.1 1c-1.3-1-2.6-1.9-3.9-2.8-2.3-1.6-2.9-4.7-1.4-7s4.7-2.9 7-1.4c1.5 1 3 2.1 4.4 3.1z m-54.5-21.2c2.8 0.3 4.8 2.8 4.5 5.5s-2.8 4.8-5.5 4.5c-3.2-0.3-6.4-0.5-9.6-0.5-54.8 0-99 44.2-99 98.9 0 26.6 10.5 51.5 29 69.9 2 2 2 5.2 0 7.2s-5.2 2-7.2 0c-20.3-20.3-31.9-47.8-31.9-77.1 0-60.2 48.8-109 109.2-109 3.5 0.1 7 0.3 10.5 0.6z m-83.9 189.4c-2.1-1.9-2.2-5.1-0.4-7.2 1.9-2.1 5.1-2.2 7.2-0.4 1.2 1.1 2.4 2.1 3.7 3.2 2.2 1.8 2.5 5 0.7 7.1-1.8 2.2-5 2.5-7.1 0.7-1.4-1.1-2.8-2.2-4.1-3.4z m51.7 26c-2.7-0.5-4.5-3.2-4-6 0.5-2.7 3.2-4.5 6-4 6.3 1.3 12.7 1.9 19.2 1.9 2.8 0 5.1 2.3 5.1 5.1s-2.3 5.1-5.1 5.1c-7.3 0-14.3-0.7-21.2-2.1z" fill="#162003" p-id="3575"></path><path d="M746 147c2 2 5.2 2 7.2 0l20.8-20.8c2-2 2-5.2 0-7.2s-5.2-2-7.2 0l-17.2 17.2-34.8-34.8c-2-2-5.2-2-7.2 0l-32.5 32.5-30.1-30.2c-2-2-5.2-2-7.2 0s-2 5.2 0 7.2l33.8 33.8c2 2 5.2 2 7.2 0l32.5-32.5L746 147zM487.4 365c2 2 5.2 2 7.2 0l20.8-20.8c2-2 2-5.2 0-7.2s-5.2-2-7.2 0L491 354.2l-34.8-34.8c-2-2-5.2-2-7.2 0l-32.5 32.5-30.2-30.2c-2-2-5.2-2-7.2 0s-2 5.2 0 7.2l33.8 33.8c2 2 5.2 2 7.2 0l32.5-32.5 34.8 34.8zM360.7 598.2c2 2 5.2 2 7.2 0l20.8-20.8c2-2 2-5.2 0-7.2s-5.2-2-7.2 0l-17.2 17.2-34.8-34.8c-2-2-5.2-2-7.2 0l-32.5 32.5-30.2-30.1c-2-2-5.2-2-7.2 0s-2 5.2 0 7.2l33.8 33.8c2 2 5.2 2 7.2 0l32.5-32.5 34.8 34.7zM578.7 537.4c2 2 5.2 2 7.2 0l20.8-20.8c2-2 2-5.2 0-7.2s-5.2-2-7.2 0l-17.2 17.2-34.8-34.8c-2-2-5.2-2-7.2 0l-32.5 32.5-30.2-30.2c-2-2-5.2-2-7.2 0s-2 5.2 0 7.2l33.8 33.8c2 2 5.2 2 7.2 0l32.5-32.5 34.8 34.8z" fill="#162003" p-id="3576"></path></svg>