<?xml version="1.0" standalone="no"?><!DOCTYPE svg PUBLIC "-//W3C//DTD SVG 1.1//EN" "http://www.w3.org/Graphics/SVG/1.1/DTD/svg11.dtd"><svg class="icon" width="200px" height="200.00px" viewBox="0 0 1024 1024" version="1.1" xmlns="http://www.w3.org/2000/svg"><path d="M826.181818 279.272727H314.181818v139.636364l209.454546 209.454545-209.454546 209.454546v69.818182h512V279.272727z" fill="#FB9E17" /><path d="M93.090909 884.363636h837.818182v58.181819H93.090909z" fill="#1A1F23" /><path d="M93.090909 535.272727h174.545455v-104.727272l197.818181 197.818181-197.818181 203.636364V721.454545H93.090909V535.272727zM570.181818 174.545455l302.545455 104.727272v605.090909l-302.545455 104.727273V174.545455z" fill="#04AD70" /><path d="M651.636364 535.272727l58.181818 12.462546V697.367273L651.636364 709.818182V535.272727z" fill="#1A1F23" /><path d="M936.727273 151.272727a17.454545 17.454545 0 1 1 0-34.909091 17.454545 17.454545 0 0 1 0 34.909091z m0 11.636364a29.090909 29.090909 0 1 0 0-58.181818 29.090909 29.090909 0 0 0 0 58.181818z" fill="#FB9E17" /><path d="M232.727273 75.636364a17.454545 17.454545 0 1 1 0-34.909091 17.454545 17.454545 0 0 1 0 34.909091zM232.727273 93.090909a34.909091 34.909091 0 1 0 0-69.818182 34.909091 34.909091 0 0 0 0 69.818182z" fill="#1A1F23" /><path d="M93.090909 279.272727v-23.272727H69.818182v23.272727H46.545455v23.272728h23.272727v23.272727h23.272727v-23.272727h23.272727v-23.272728H93.090909zM566.190545 95.918545l16.453819-16.465454-16.453819-16.453818-16.453818 16.453818-16.465454-16.453818-16.453818 16.453818 16.453818 16.465454-16.453818 16.453819 16.453818 16.453818 16.465454-16.453818 16.453818 16.453818 16.453819-16.453818-16.453819-16.453819z" fill="#FB9E17" /></svg>